<svg viewBox="0 0 1400 2000" xmlns="http://www.w3.org/2000/svg"><path fill="beige" d="M0 0h1400v2000H0z"/><rect x="1238" y="910" width="12" height="24" fill="#c8cdd0" rx="0" transform="matrix(-.98082 .39127 -.24514 -.92177 2600.1 1219.938)"/><rect x="954" y="1900" width="13" height="13" fill="#d3d1d1" rx="0" transform="matrix(-.41073 .84805 -.92252 -.52992 3381.742 2102.24)"/><rect x="808" y="585" width="8" height="17" fill="#cdb2b2" rx="0" transform="matrix(-.9364 .4551 -.35954 -.89318 1767 697.283)"/><rect x="493" y="1123" width="10" height="12" fill="#cdb2b2" rx="0" transform="matrix(.85781 .55953 -.51544 .82954 672.75 -68.811)"/><rect x="865" y="391" width="12" height="33" fill="#c8ced3" rx="0" transform="matrix(.02423 1.04171 -.96208 -.09114 1123.135 -196.401)"/><rect x="796" y="327" width="8" height="21" fill="#cdb2b2" rx="0" transform="matrix(.97222 .36034 -.24243 .93872 111.408 -183.51)"/><rect x="1100" y="612" width="13" height="32" fill="#d3d1d1" rx="0" transform="matrix(.1051 1 -.9945 .0524 1674.654 -569.401)"/><rect x="1308" y="1511" width="13" height="23" fill="#d3d1d1" rx="0" transform="matrix(1.02394 .31715 -.00176 .97607 130.962 -76.983)"/><rect x="365" y="707" width="13" height="15" fill="#c8cdd0" rx="0" transform="matrix(-.88517 .3092 -.50982 -.95164 1192.88 1292.547)"/><rect x="1096" y="488" width="7" height="11" fill="#c8ced3" rx="0" transform="matrix(.43 1.02094 -1.00203 -.0535 1316.075 -368.912)"/><rect x="888" y="1307" width="8" height="15" fill="#c8ced3" rx="0" transform="matrix(-.80173 .44437 -.53107 -.95295 2051.133 2460.604)"/><rect x="516" y="1724" width="7" height="18" fill="#cdb2b2" rx="0" transform="matrix(-.89173 .25898 -.53335 -.96651 2343.662 3291.573)"/><rect x="371" y="480" width="8" height="16" fill="#d3d1d1" rx="0" transform="matrix(.92998 .95529 -.63275 .42532 507.845 36.86)"/><rect x="1121" y="1985" width="11" height="29" fill="#c8ced3" rx="0" transform="matrix(-.73135 .73314 -.682 -.68366 3314.026 2461.831)"/><rect x="571" y="776" width="7" height="15" fill="#c8ced3" rx="0" transform="matrix(.17738 .93372 -1.0029 .35842 1121.977 -43.776)"/><rect x="1276" y="1257" width="11" height="31" fill="#cdb2b2" rx="0" transform="matrix(.98535 .73541 -.40824 .71018 866.631 -301.238)"/><rect x="287" y="1731" width="12" height="25" fill="#c8cdd0" rx="0" transform="matrix(-.22375 .85926 -1.02935 -.5163 2625.886 2412.387)"/><rect x="89" y="1592" width="13" height="21" fill="#cdb2b2" rx="0" transform="matrix(-.43427 .71945 -.97058 -.69476 2244.687 2648.82)"/><rect x="289" y="450" width="12" height="13" fill="#c8cdd0" rx="0" transform="matrix(-.56385 .65646 -.87469 -.75517 1005.61 597.278)"/><rect x="1298" y="1311" width="7" height="8" fill="#c8cdd0" rx="0" transform="matrix(.98358 .07014 -.19116 1.00306 252.171 -232.104)"/><rect x="661" y="1395" width="12" height="13" fill="#cdb2b2" rx="0" transform="matrix(1.0911 .32801 .1201 .95262 281.694 -70.483)"/><rect x="956" y="544" width="13" height="15" fill="#d3d1d1" rx="0" transform="matrix(-.98217 .0351 -.37117 -1.0049 2263.215 1173.087)"/><rect x="1135" y="1516" width="8" height="20" fill="#c8ced3" rx="0" transform="matrix(-.77821 .58779 -.63018 -.80902 3067.02 2091.073)"/><rect x="326" y="1001" width="12" height="27" fill="#c8ced3" rx="0" transform="matrix(.01645 .98362 -1.02231 -.33869 1441.274 1126.736)"/><rect x="1153" y="581" width="9" height="16" fill="#c8cdd0" rx="0" transform="matrix(-.95495 .29277 -.2921 -.95762 2462.598 753.49)"/><rect x="314" y="1239" width="12" height="32" fill="#cdb2b2" rx="0" transform="matrix(.86805 .67587 -.44508 .80547 481.898 131.836)"/><rect x="1056" y="834" width="8" height="8" fill="#d3d1d1" rx="0" transform="matrix(-1.01547 .44166 -.18214 -.90554 2176.924 998.531)"/><rect x="412" y="1717" width="12" height="21" fill="#c8cdd0" rx="0" transform="matrix(-.76509 .64367 -.6418 -.7671 1754.827 2805.51)"/><rect x="958" y="177" width="12" height="31" fill="#c8cdd0" rx="0" transform="matrix(-.8895 .20842 -.61326 -.98054 2029.022 247.746)"/><rect x="1095" y="1797" width="10" height="11" fill="#c8cdd0" rx="0" transform="matrix(-.9433 .12375 -.3983 -1.00786 3065.403 3676.999)"/><rect x="112" y="1572" width="13" height="18" fill="#c8cdd0" rx="0" transform="matrix(.19348 .93984 -.9936 .34207 1444.54 926.745)"/><rect x="728" y="1801" width="10" height="24" fill="#c8ced3" rx="0" transform="matrix(.98734 .1051 -.12042 1 379.481 -154.083)"/><rect x="1013" y="1688" width="11" height="14" fill="#cdb2b2" rx="0" transform="matrix(-.75558 .61576 -.65693 -.78813 3018.83 2385.957)"/><rect x="109" y="661" width="11" height="11" fill="#cdb2b2" rx="0" transform="matrix(-.48217 .88811 -.85871 -.49229 620.96 913.11)"/><rect x="1140" y="1935" width="13" height="23" fill="#c8cdd0" rx="0" transform="matrix(.2872 .99133 -1.0857 -.26563 3648.991 1591.67)"/><rect x="1290" y="1795" width="13" height="17" fill="#c8cdd0" rx="0" transform="matrix(.92178 .55304 -.38877 .8516 1344.83 -678.001)"/><rect x="1243" y="327" width="8" height="10" fill="#cdb2b2" rx="0" transform="matrix(-.43462 .83745 -.88977 -.58639 2053.086 -252.563)"/><rect x="757" y="1412" width="7" height="9" fill="#cdb2b2" rx="0" transform="matrix(-.97248 -.0367 -.5969 -1.05082 2854.203 3179.997)"/><rect x="639" y="1310" width="8" height="13" fill="#cdb2b2" rx="0" transform="matrix(-1.00303 -.03516 -.28288 -1.0069 1931.603 2743.638)"/><rect x="656" y="1070" width="12" height="22" fill="#d3d1d1" rx="0" transform="matrix(-.87154 .2777 -.5615 -.96848 2050.882 2025.369)"/><rect x="320" y="1191" width="8" height="18" fill="#c8ced3" rx="0" transform="matrix(-.85767 .39127 -.53525 -.92177 1372.098 2196.331)"/><rect x="1082" y="162" width="9" height="15" fill="#d3d1d1" rx="0" transform="matrix(.58039 .98297 -.9045 .19107 687.193 -873.947)"/><rect x="635" y="1375" width="8" height="15" fill="#c8cdd0" rx="0" transform="matrix(-.8772 .43053 -.44155 -.92327 1571.343 2508.023)"/><rect x="243" y="1465" width="10" height="29" fill="#c8ced3" rx="0" transform="matrix(.54878 1.0275 -.88633 .16274 1613.614 1055.023)"/><rect x="329" y="1706" width="7" height="8" fill="#c8cdd0" rx="0" transform="matrix(.05896 .9901 -1.01934 -.15682 2539.63 1625.697)"/><rect x="947" y="51" width="8" height="14" fill="#c8ced3" rx="0" transform="matrix(-.59509 .93198 -.82038 -.3956 1570.99 -955.99)"/><rect x="329" y="1185" width="13" height="28" fill="#d3d1d1" rx="0" transform="rotate(89.847 399.276 1341.917) skewX(-5.152)"/><rect x="724" y="1720" width="13" height="37" fill="#c8cdd0" rx="0" transform="matrix(.81685 .69988 -.58295 .72474 1589.048 -122.417)"/><rect x="641" y="1687" width="12" height="21" fill="#c8cdd0" rx="0" transform="matrix(-1.01762 .24494 -.0012 -.9824 1167.906 3104.159)"/><rect x="619" y="814" width="9" height="24" fill="#c8ced3" rx="0" transform="matrix(-1.01833 -.1472 -.45194 -1.04733 1891.2 1997.556)"/><rect x="692" y="1518" width="7" height="18" fill="#cdb2b2" rx="0" transform="matrix(-.51504 .75705 -.85717 -.68165 2362.603 2176.547)"/><rect x="249" y="1458" width="10" height="19" fill="#cdb2b2" rx="0" transform="matrix(-.01742 1.00122 -.99909 .01748 1749.967 1174.232)"/><rect x="717" y="1082" width="13" height="19" fill="#c8cdd0" rx="0" transform="matrix(.81537 .60633 -.56722 .80463 911.501 -314.275)"/><rect x="814" y="802" width="13" height="28" fill="#cdb2b2" rx="0" transform="matrix(-1.00766 -.08945 -.3379 -1.0224 2118.449 1913.097)"/><rect x="129" y="1987" width="10" height="27" fill="#cdb2b2" rx="0" transform="matrix(.08468 1.00368 -.98893 .08781 1853.356 1706.796)"/><rect x="444" y="1358" width="8" height="10" fill="#d3d1d1" rx="0" transform="matrix(-.70365 .81928 -.72789 -.57366 1513.632 1785.688)"/><rect x="658" y="1982" width="8" height="20" fill="#c8cdd0" rx="0" transform="matrix(.96189 .17389 -.29576 .98616 257.017 -52.848)"/><rect x="909" y="179" width="10" height="24" fill="#d3d1d1" rx="0" transform="matrix(-.73747 .81697 -.68823 -.59356 1716.226 -570.792)"/><rect x="495" y="1970" width="8" height="18" fill="#c8ced3" rx="0" transform="matrix(.87207 .47671 -.45757 .89657 1302.81 -121.176)"/><rect x="901" y="1543" width="8" height="15" fill="#cdb2b2" rx="0" transform="matrix(-.62718 .74264 -.7617 -.69252 2974.731 1792.59)"/><rect x="421" y="265" width="7" height="11" fill="#c8cdd0" rx="0" transform="matrix(.92718 .57169 -.3746 .84756 132.242 -111.215)"/><rect x="984" y="1762" width="12" height="28" fill="#c8ced3" rx="0" transform="matrix(-.17358 .98223 -.98436 -.19093 2878.456 1177.252)"/><rect x="389" y="151" width="13" height="28" fill="#cdb2b2" rx="0" transform="matrix(.78902 .4574 -.63773 .8977 178.481 -212.583)"/><rect x="334" y="1942" width="12" height="12" fill="#c8cdd0" rx="0" transform="matrix(1.05587 .75975 -.36551 .68408 1349.45 429.369)"/><rect x="538" y="907" width="7" height="20" fill="#cdb2b2" rx="0" transform="matrix(.99367 .27602 -.15764 .96258 214.091 -86.77)"/><rect x="983" y="918" width="11" height="25" fill="#c8cdd0" rx="0" transform="matrix(-.16353 .91858 -1.01583 -.40898 2259.212 506.935)"/><rect x="831" y="1039" width="7" height="19" fill="#c8cdd0" rx="0" transform="matrix(-.34298 .97267 -.94259 -.24251 2074.446 432.732)"/><rect x="949" y="255" width="10" height="16" fill="#d3d1d1" rx="0" transform="matrix(1.01227 .42365 -.18961 .90852 101.94 -446.814)"/><rect x="211" y="1932" width="10" height="13" fill="#d3d1d1" rx="0" transform="matrix(.10132 .96846 -1.06945 -.3525 2690.723 2466.47)"/><rect x="1217" y="766" width="13" height="30" fill="#c8cdd0" rx="0" transform="matrix(-.62701 .80648 -.76746 -.60773 2422.008 440.855)"/><rect x="1187" y="1764" width="10" height="23" fill="#cdb2b2" rx="0" transform="matrix(.50892 .75655 -.87939 .65766 1938.945 -377.34)"/><rect x="398" y="355" width="11" height="16" fill="#cdb2b2" rx="0" transform="matrix(-.1047 1.00536 -.9965 .01755 801.882 -91.44)"/><rect x="362" y="1278" width="13" height="21" fill="#c8ced3" rx="0" transform="matrix(1.0179 .12233 .11582 .99634 252.357 -72.6)"/><rect x="1247" y="1153" width="9" height="25" fill="#d3d1d1" rx="0" transform="matrix(.31215 1.0043 -.96291 .10556 2076.921 -38.514)"/><rect x="787" y="802" width="7" height="17" fill="#cdb2b2" rx="0" transform="matrix(-.95371 .05371 -.41968 -1.0249 2024.116 1781.221)"/><rect x="517" y="1811" width="11" height="26" fill="#d3d1d1" rx="0" transform="matrix(.65175 .63279 -.77547 .78143 1441.65 13.13)"/><rect x="1327" y="355" width="11" height="31" fill="#c8cdd0" rx="0" transform="matrix(.4357 1.04733 -.89358 .1472 1068.511 -620.783)"/><rect x="66" y="702" width="12" height="21" fill="#d3d1d1" rx="0" transform="matrix(.07952 1.0457 -.96465 -.1099 663.233 738.913)"/><rect x="1338" y="1364" width="13" height="33" fill="#cdb2b2" rx="0" transform="matrix(.90518 .54539 -.4397 .83982 965.485 -582.608)"/><rect x="140" y="1873" width="7" height="11" fill="#c8cdd0" rx="0" transform="matrix(.1606 .98054 -1.05399 -.20842 2677.753 2139.343)"/><rect x="333" y="1288" width="8" height="16" fill="#c8ced3" rx="0" transform="matrix(.9636 .98737 -.6429 .37902 1304.255 588.087)"/><rect x="318" y="1073" width="7" height="7" fill="#c8ced3" rx="0" transform="matrix(.59895 .96493 -.8646 .27669 1335.086 496.544)"/><rect x="1280" y="1297" width="9" height="17" fill="#c8ced3" rx="0" transform="matrix(-.46581 .7098 -.94302 -.7098 3467.465 1432.785)"/><rect x="1291" y="183" width="11" height="29" fill="#d3d1d1" rx="0" transform="matrix(-.82605 .32492 -.53538 -1 2440.777 395)"/><rect x="778" y="1066" width="8" height="22" fill="#c8ced3" rx="0" transform="matrix(.6304 .99708 -.89177 .17581 1616.594 231.787)"/><rect x="1025" y="1614" width="10" height="13" fill="#d3d1d1" rx="0" transform="matrix(-.49241 .70754 -.92094 -.70754 3473.416 2074.27)"/><rect x="787" y="315" width="10" height="14" fill="#c8cdd0" rx="0" transform="matrix(.26286 1.0032 -.98762 .03503 956.82 -414.53)"/><rect x="825" y="536" width="12" height="21" fill="#c8cdd0" rx="0" transform="matrix(-.25882 .89658 -.96593 -.51764 1573.957 307)"/><rect x="1284" y="1824" width="9" height="9" fill="#cdb2b2" rx="0" transform="matrix(-.28665 .86044 -.98996 -.517 3810.277 1777.895)"/><rect x="900" y="1759" width="13" height="33" fill="#c8cdd0" rx="0" transform="matrix(.80211 .70357 -.5305 .78139 793.42 44.902)"/><rect x="625" y="1801" width="12" height="16" fill="#d3d1d1" rx="0" transform="matrix(.93717 .83974 -.48464 .63279 1199.42 339.442)"/><rect x="931" y="1842" width="7" height="11" fill="#cdb2b2" rx="0" transform="matrix(-.4021 .61464 -1.07351 -.84598 3986.701 3121.775)"/><rect x="1036" y="1910" width="12" height="35" fill="#c8ced3" rx="0" transform="matrix(.52188 .92733 -.86752 .37466 2507.003 220.875)"/><rect x="1153" y="1160" width="8" height="23" fill="#c8cdd0" rx="0" transform="matrix(.75758 .91311 -.74189 .4258 1477.103 -241.727)"/><rect x="163" y="741" width="13" height="16" fill="#c8cdd0" rx="0" transform="matrix(-.96 .15682 -.31574 -.9901 738.89 1452.152)"/><rect x="578" y="379" width="8" height="21" fill="#c8ced3" rx="0" transform="matrix(.15693 .99386 -.97567 .19319 907.196 -356.355)"/><rect x="1192" y="967" width="10" height="27" fill="#d3d1d1" rx="0" transform="matrix(.9767 .60092 -.3198 .8271 471.251 -295.33)"/><rect x="210" y="991" width="13" height="29" fill="#cdb2b2" rx="0" transform="matrix(-.81914 .55928 -.5736 -.82916 1005.574 1714.362)"/><rect x="791" y="1688" width="10" height="27" fill="#cdb2b2" rx="0" transform="matrix(.38785 .80303 -.95301 .60513 1852.579 -51.007)"/><rect x="1328" y="1394" width="10" height="19" fill="#c8ced3" rx="0" transform="matrix(.22823 1.00382 -.9962 0 2640.563 182.03)"/><rect x="991" y="484" width="13" height="38" fill="#cdb2b2" rx="0" transform="matrix(.8967 .55 -.4374 .84691 311.82 -331.424)"/><rect x="279" y="307" width="13" height="24" fill="#c8cdd0" rx="0" transform="matrix(.62231 .98872 -.79713 .34044 376.302 15.405)"/><rect x="1128" y="1845" width="8" height="17" fill="#d3d1d1" rx="0" transform="matrix(.83298 .7098 -.57585 .7098 1726.515 -364.668)"/><rect x="1225" y="1237" width="10" height="18" fill="#cdb2b2" rx="0" transform="matrix(-.72764 .57436 -.70188 -.82028 3137.273 1626.059)"/><rect x="1355" y="395" width="7" height="16" fill="#cdb2b2" rx="0" transform="matrix(-.28248 1.00921 -1.00074 .03524 2108.15 -1173.143)"/><rect x="1350" y="951" width="8" height="13" fill="#cdb2b2" rx="0" transform="matrix(-1.00355 .05237 .05328 -.99924 2520.586 1890.647)"/><rect x="1181" y="1421" width="11" height="16" fill="#d3d1d1" rx="0" transform="matrix(.99583 .0351 .01999 1.0049 182.971 -173.339)"/><rect x="520" y="189" width="12" height="25" fill="#c8cdd0" rx="0" transform="matrix(.9994 .35962 -.0349 .98805 7.353 -15.845)"/><rect x="690" y="421" width="11" height="21" fill="#d3d1d1" rx="0" transform="matrix(-.15643 .98223 -.98769 -.19093 1230.488 -144.966)"/><rect x="614" y="1060" width="13" height="33" fill="#c8cdd0" rx="0" transform="matrix(.01762 .98769 -1.00967 .15643 1545.186 295.238)"/><rect x="854" y="1967" width="13" height="14" fill="#d3d1d1" rx="0" transform="matrix(-.0013 1.01626 -.98375 -.19754 2649.39 1720.027)"/><rect x="863" y="877" width="11" height="27" fill="#d3d1d1" rx="0" transform="matrix(-.90674 .64761 -.46352 -.7718 1986.379 908.694)"/><rect x="928" y="626" width="13" height="14" fill="#d3d1d1" rx="0" transform="matrix(.71989 .80846 -.65396 .65468 565.1 -268.96)"/><rect x="294" y="1657" width="11" height="22" fill="#c8cdd0" rx="0" transform="matrix(-.32612 .96651 -.94726 -.25898 1919.323 1800.043)"/><rect x="1082" y="687" width="7" height="7" fill="#d3d1d1" rx="0" transform="matrix(-.73225 .50069 -.72897 -.86721 2542.57 802.705)"/><rect x="1214" y="1797" width="11" height="29" fill="#cdb2b2" rx="0" transform="matrix(.43888 .92402 -.89593 .39222 2546.864 -132.55)"/><rect x="305" y="1063" width="9" height="19" fill="#c8ced3" rx="0" transform="matrix(.91493 .6821 -.48491 .73147 852.385 71.49)"/><rect x="1038" y="600" width="9" height="23" fill="#c8cdd0" rx="0" transform="matrix(.59765 .98402 -.90006 .19127 1205.501 -458.411)"/><rect x="700" y="1752" width="11" height="15" fill="#c8cdd0" rx="0" transform="matrix(.54902 .95298 -.8163 .40451 1618.184 564.47)"/><rect x="321" y="1285" width="10" height="11" fill="#d3d1d1" rx="0" transform="matrix(1.09317 .28675 .32492 1 0 0)"/><rect x="706" y="483" width="13" height="23" fill="#d3d1d1" rx="0" transform="matrix(-.29183 .95762 -.95504 -.29277 1416.656 -80.367)"/><rect x="778" y="1325" width="12" height="12" fill="#cdb2b2" rx="0" transform="matrix(.25866 .97318 -.95825 .26076 2008.245 124.689)"/><rect x="1222" y="1529" width="13" height="26" fill="#c8ced3" rx="0" transform="matrix(-.1908 .98496 -.98163 -.17367 2976.578 578.342)"/><rect x="555" y="1244" width="13" height="31" fill="#c8ced3" rx="0" transform="matrix(.2115 .99832 -.97945 .10493 1911.632 517.661)"/><rect x="1386" y="70" width="7" height="19" fill="#d3d1d1" rx="0" transform="matrix(-.95488 -.11055 -.03949 -1.05183 2621.06 795.175)"/><rect x="95" y="206" width="13" height="16" fill="#c8ced3" rx="0" transform="matrix(-.99649 .01746 -.17518 -1.00046 266.842 429.87)"/><rect x="1310" y="906" width="11" height="26" fill="#d3d1d1" rx="0" transform="matrix(.6878 .81347 -.72958 .59102 1261.42 -832.539)"/><rect x="943" y="18" width="9" height="16" fill="#c8ced3" rx="0" transform="matrix(-.9703 .19107 -.24192 -.98297 1873.145 -79.826)"/><rect x="519" y="1267" width="10" height="22" fill="#d3d1d1" rx="0" transform="matrix(-.16794 .89395 -1.02933 -.47532 2167.465 1500.025)"/><rect x="990" y="1693" width="8" height="9" fill="#d3d1d1" rx="0" transform="matrix(-.91186 .65967 -.46692 -.75887 2469.111 2225.488)"/><rect x="245" y="1175" width="7" height="9" fill="#d3d1d1" rx="0" transform="matrix(-1.03053 -.12307 -.26735 -1.0023 1122.721 2427.22)"/><rect x="981" y="1414" width="11" height="11" fill="#cdb2b2" rx="0" transform="matrix(.8089 .58787 -.5877 .80914 1047.228 -326.232)"/><rect x="856" y="842" width="11" height="25" fill="#c8ced3" rx="0" transform="matrix(.49731 .974 -.9027 .24285 1368.384 -116.743)"/><rect x="580" y="1591" width="8" height="12" fill="#cdb2b2" rx="0" transform="matrix(.0211 .91828 -1.09974 -.46789 2794.892 1953.548)"/><rect x="47" y="419" width="11" height="12" fill="#cdb2b2" rx="0" transform="matrix(-.17002 1.00492 -.97423 -.12339 519.27 416.367)"/><rect x="1024" y="1356" width="13" height="13" fill="#cdb2b2" rx="0" transform="matrix(.13308 1.00967 -.99274 -.01762 2595.129 201.216)"/><rect x="1330" y="851" width="8" height="17" fill="#d3d1d1" rx="0" transform="matrix(.99244 -.01767 -.26347 1.01231 156.95 -198.294)"/><rect x="975" y="499" width="10" height="11" fill="#c8cdd0" rx="0" transform="matrix(.80648 .48481 -.60773 .87462 425.342 -411.86)"/><rect x="419" y="618" width="12" height="31" fill="#c8cdd0" rx="0" transform="matrix(.891 .9263 -.64499 .4518 653.067 59.573)"/><rect x="171" y="1831" width="7" height="8" fill="#cdb2b2" rx="0" transform="matrix(.91913 .73469 -.40934 .76079 798.327 370.835)"/><rect x="1195" y="123" width="11" height="26" fill="#c8ced3" rx="0" transform="matrix(-.15075 .89416 -1.0348 -.49564 1584.166 -614.857)"/><rect x="1093" y="1498" width="11" height="16" fill="#c8ced3" rx="0" transform="matrix(1.02846 .26281 .03327 .98083 127.317 -66.129)"/><rect x="734" y="152" width="12" height="13" fill="#c8cdd0" rx="0" transform="matrix(-.54488 .8573 -.83906 -.51512 1273.663 -407.171)"/><rect x="1147" y="17" width="11" height="26" fill="#c8cdd0" rx="0" transform="matrix(-.48292 .8708 -.86956 -.50275 1721.931 -837.377)"/><rect x="815" y="425" width="13" height="24" fill="#cdb2b2" rx="0" transform="matrix(-.94323 .08945 -.39847 -1.0224 1825.319 999.965)"/><rect x="266" y="31" width="9" height="22" fill="#c8cdd0" rx="0" transform="matrix(.99366 .26024 -.13414 .97125 10.48 -97.62)"/><rect x="645" y="80" width="11" height="15" fill="#d3d1d1" rx="0" transform="matrix(-.9994 .05234 -.03488 -.99878 1300.204 152.198)"/><rect x="1088" y="291" width="12" height="27" fill="#c8ced3" rx="0" transform="matrix(.86752 .6508 -.5027 .7756 340.648 -816.916)"/><rect x="109" y="1698" width="8" height="23" fill="#c8cdd0" rx="0" transform="matrix(.19069 .98297 -.98025 .19107 1856.478 1265.866)"/><rect x="838" y="1278" width="12" height="17" fill="#c8ced3" rx="0" transform="matrix(.8583 .84183 -.60897 .56782 1182.035 -5.681)"/><rect x="636" y="412" width="8" height="9" fill="#d3d1d1" rx="0" transform="matrix(-1.00072 -.09023 -.3555 -1.03134 1532.203 1075.287)"/><rect x="901" y="414" width="8" height="14" fill="#c8cdd0" rx="0" transform="matrix(.79746 .73147 -.62348 .6821 507.171 -512.344)"/><rect x="729" y="373" width="11" height="23" fill="#c8ced3" rx="0" transform="matrix(.9953 .45406 -.24895 .89114 183.622 -278.83)"/><rect x="753" y="140" width="11" height="21" fill="#c8cdd0" rx="0" transform="matrix(1.07903 .22998 .32555 .99614 -1.607 -12.632)"/><rect x="102" y="1356" width="10" height="28" fill="#c8cdd0" rx="0" transform="matrix(1.0654 .7771 -.32755 .6997 817.606 360.968)"/><rect x="658" y="564" width="9" height="13" fill="#c8cdd0" rx="0" transform="matrix(.36192 1.0189 -1.06502 -.23523 1251.987 232.23)"/><rect x="107" y="1632" width="11" height="24" fill="#c8ced3" rx="0" transform="matrix(.07002 .99985 -1.00137 -.01745 1894.714 1560.209)"/><rect x="1092" y="356" width="7" height="9" fill="#c8ced3" rx="0" transform="matrix(.37232 1.05504 -.9218 .07378 1007.058 -444.686)"/><rect x="462" y="551" width="11" height="22" fill="#cdb2b2" rx="0" transform="matrix(.70944 .64318 -.7093 .76651 505.868 -185.791)"/><rect x="837" y="216" width="9" height="12" fill="#c8ced3" rx="0" transform="matrix(.72948 .47671 -.72575 .89657 379.72 -526.572)"/><rect x="548" y="345" width="13" height="26" fill="#c8cdd0" rx="0" transform="matrix(-.99027 .06993 -.13917 -1 1153.428 716)"/><rect x="82" y="953" width="7" height="17" fill="#cdb2b2" rx="0" transform="matrix(.99113 .1576 -.08705 .9951 33.517 1.728)"/><rect x="291" y="1568" width="8" height="14" fill="#d3d1d1" rx="0" transform="matrix(.08402 1.03552 -.97751 -.14553 1693.352 1588.927)"/><rect x="417" y="123" width="10" height="12" fill="#d3d1d1" rx="0" transform="matrix(.5781 .88308 -.82502 .46954 301.564 -311.598)"/><rect x="477" y="104" width="9" height="20" fill="#cdb2b2" rx="0" transform="matrix(.63819 .73854 -.7589 .6887 264.78 -387.79)"/><rect x="1105" y="1247" width="13" height="19" fill="#c8ced3" rx="0" transform="matrix(.682 .8151 -.73135 .5922 1272.405 -257.099)"/><rect x="462" y="759" width="8" height="11" fill="#d3d1d1" rx="0" transform="matrix(.97708 .40773 -.25805 .91578 376.934 -158.199)"/><rect x="1085" y="1911" width="11" height="32" fill="#d3d1d1" rx="0" transform="matrix(.34307 1.00293 -.94275 .15885 2570.041 719.495)"/><rect x="256" y="1071" width="8" height="23" fill="#d3d1d1" rx="0" transform="matrix(-.60064 .5332 -.87581 -.8874 1567.392 1974.149)"/><rect x="369" y="1152" width="13" height="24" fill="#c8cdd0" rx="0" transform="matrix(.62744 .80463 -.77 .60633 1213.223 109.981)"/><rect x="96" y="750" width="10" height="28" fill="#c8cdd0" rx="0" transform="matrix(.53198 .90003 -.85161 .43897 738.22 343.015)"/><rect x="85" y="905" width="11" height="29" fill="#c8ced3" rx="0" transform="matrix(-.2642 .89591 -.98156 -.4565 1114.598 1267.675)"/><rect x="1375" y="384" width="13" height="33" fill="#c8ced3" rx="0" transform="matrix(-1.00305 .2443 -.07031 -.97983 2788.172 261.266)"/><rect x="480" y="1965" width="13" height="18" fill="#cdb2b2" rx="0" transform="matrix(.98874 .22526 -.15662 .9757 349.542 -36.139)"/><rect x="1105" y="457" width="12" height="35" fill="#c8ced3" rx="0" transform="matrix(.01286 .9582 -1.0478 -.31134 1723.747 -305.915)"/><rect x="1070" y="1929" width="8" height="9" fill="#c8ced3" rx="0" transform="matrix(.3897 .91704 -.91697 .40829 2557.06 65.212)"/><rect x="385" y="526" width="10" height="11" fill="#c8ced3" rx="0" transform="matrix(.98944 -.01762 .05616 1.00967 58.321 -53.08)"/><rect x="190" y="347" width="13" height="34" fill="#c8cdd0" rx="0" transform="matrix(.77177 .7257 -.6062 .7257 222.475 2.607)"/><rect x="868" y="1755" width="13" height="31" fill="#c8ced3" rx="0" transform="matrix(.61014 .68366 -.80841 .73314 1592.56 -186.539)"/><rect x="1362" y="1223" width="13" height="37" fill="#c8cdd0" rx="0" transform="matrix(.35837 1.04314 -.93358 .07294 2037.114 141.79)"/><rect x="313" y="584" width="13" height="36" fill="#cdb2b2" rx="0" transform="matrix(.9325 .34842 -.30805 .95728 101.829 -23.5)"/><rect x="834" y="1115" width="7" height="19" fill="#d3d1d1" rx="0" transform="matrix(.92536 .29242 -.39307 .95645 364.66 -181.308)"/><rect x="1167" y="1495" width="12" height="16" fill="#d3d1d1" rx="0" transform="matrix(.3503 .94522 -.9235 .36284 1882.64 34.704)"/><rect x="418" y="1930" width="9" height="26" fill="#cdb2b2" rx="0" transform="matrix(.91568 .7731 -.46902 .6961 1127.516 385.003)"/><rect x="409" y="962" width="10" height="23" fill="#cdb2b2" rx="0" transform="matrix(-.20947 .94552 -.9855 -.32557 1579.63 898.996)"/><rect x="547" y="506" width="7" height="18" fill="#c8ced3" rx="0" transform="matrix(.89508 .44005 -.4373 .90223 233.698 -143.73)"/><rect x="1041" y="1417" width="13" height="17" fill="#c8ced3" rx="0" transform="matrix(-.68161 .7318 -.73088 -.68241 2752.302 1668.3)"/><rect x="1077" y="450" width="12" height="23" fill="#c8cdd0" rx="0" transform="matrix(-.9554 .36189 -.27436 -.94276 2260.529 352.45)"/><rect x="231" y="54" width="13" height="37" fill="#d3d1d1" rx="0" transform="matrix(-.4674 .85442 -.87833 -.5339 406.858 -62.555)"/><rect x="429" y="969" width="10" height="22" fill="#cdb2b2" rx="0" transform="matrix(-.35894 .80303 -.9748 -.60513 1744.438 1270.126)"/><rect x="433" y="1461" width="8" height="18" fill="#c8ced3" rx="0" transform="matrix(-.97164 .05299 -.33206 -1.01108 1538.722 3002.342)"/><rect x="774" y="1671" width="10" height="18" fill="#c8ced3" rx="0" transform="matrix(1.0888 .67332 -.23266 .77456 890.312 34.07)"/><rect x="194" y="417" width="11" height="14" fill="#d3d1d1" rx="0" transform="matrix(.80371 .63405 -.58467 .78298 255.698 -9.981)"/><rect x="502" y="102" width="9" height="18" fill="#c8ced3" rx="0" transform="matrix(-.84446 .3639 -.54814 -.94798 1002.058 121.222)"/><rect x="24" y="1378" width="10" height="15" fill="#d3d1d1" rx="0" transform="matrix(.82173 .66099 -.5676 .76038 1110.622 309.268)"/><rect x="196" y="1496" width="10" height="12" fill="#c8cdd0" rx="0" transform="matrix(1.01392 .37466 -.15952 .92733 610.422 30.342)"/><rect x="1054" y="568" width="8" height="9" fill="#c8ced3" rx="0" transform="matrix(-.3761 .65152 -1.07043 -.80456 2346.859 627.293)"/><rect x="1220" y="29" width="12" height="24" fill="#cdb2b2" rx="0" transform="matrix(.27214 .99863 -1.01563 -.05234 947.321 -1181.174)"/><rect x="700" y="1939" width="9" height="11" fill="#cdb2b2" rx="0" transform="matrix(-.70786 .57366 -.73225 -.81928 2972.079 3145.735)"/><rect x="1339" y="1406" width="11" height="22" fill="#d3d1d1" rx="0" transform="matrix(-.251 .97324 -.95552 -.27907 3248.255 290.972)"/><rect x="614" y="1581" width="12" height="13" fill="#c8cdd0" rx="0" transform="matrix(-.79107 .36189 -.70246 -.94276 2612.242 2946.888)"/><rect x="1007" y="1425" width="12" height="27" fill="#cdb2b2" rx="0" transform="matrix(-.48075 .8336 -.87534 -.56227 3018.097 1296.418)"/><rect x="423" y="1315" width="11" height="19" fill="#d3d1d1" rx="0" transform="matrix(-.27958 .82115 -1.02204 -.57498 2290.376 1764.157)"/><rect x="1015" y="525" width="12" height="18" fill="#cdb2b2" rx="0" transform="matrix(.10999 1.00921 -.98703 .03524 1518.784 -658.718)"/><rect x="766" y="1101" width="10" height="21" fill="#d3d1d1" rx="0" transform="matrix(.08918 1.00692 -.98376 .10583 1934.738 95.42)"/><rect x="1124" y="443" width="12" height="26" fill="#cdb2b2" rx="0" transform="matrix(.78983 .83974 -.59567 .63279 480.376 -414.292)"/><rect x="1317" y="1763" width="11" height="26" fill="#c8ced3" rx="0" transform="matrix(-.75937 .50069 -.682 -.86721 3830.253 2723.324)"/><rect x="1336" y="1810" width="12" height="28" fill="#c8cdd0" rx="0" transform="matrix(-1.07332 -.21338 -.36311 -1.00388 4179.453 4251.253)"/><rect x="345" y="1630" width="12" height="18" fill="#c8cdd0" rx="0" transform="matrix(-.98245 .3908 -.2444 -.92065 806.336 3016.896)"/><rect x="290" y="635" width="10" height="10" fill="#cdb2b2" rx="0" transform="matrix(-.97437 .07063 -.22495 -1.01 726.408 1312.288)"/><rect x="706" y="1370" width="10" height="21" fill="#d3d1d1" rx="0" transform="matrix(.87424 .37466 -.50524 .92733 566.287 -153.648)"/><rect x="748" y="579" width="13" height="18" fill="#d3d1d1" rx="0" transform="matrix(-.40248 .69386 -.9782 -.7982 1752.508 793.616)"/><rect x="14" y="1031" width="11" height="20" fill="#c8cdd0" rx="0" transform="matrix(-.79949 .43017 -.52897 -.96618 419.806 2045.124)"/><rect x="1196" y="963" width="7" height="12" fill="#c8ced3" rx="0" transform="matrix(.59953 .67169 -.82295 .74598 1171.714 -664.489)"/><rect x="869" y="127" width="7" height="7" fill="#d3d1d1" rx="0" transform="matrix(.08751 .99695 -1.01226 -.10478 951.761 -664.654)"/><rect x="500" y="1472" width="8" height="16" fill="#d3d1d1" rx="0" transform="matrix(1.0471 .67614 -.27442 .77781 753.093 113.72)"/><rect x="197" y="350" width="9" height="21" fill="#c8cdd0" rx="0" transform="matrix(1.06086 .46593 -.06417 .91444 89.987 -16.522)"/><rect x="495" y="1451" width="7" height="11" fill="#c8ced3" rx="0" transform="matrix(-.66227 .60663 -.70264 -.86635 1652.129 2587.586)"/><rect x="908" y="306" width="9" height="16" fill="#c8ced3" rx="0" transform="matrix(1.01073 .30944 -.12092 .95236 94.54 -315.229)"/><rect x="1286" y="1274" width="12" height="15" fill="#c8ced3" rx="0" transform="matrix(-.77927 .39097 -.7219 -.92107 3654.97 2001.831)"/><rect x="308" y="852" width="13" height="33" fill="#cdb2b2" rx="0" transform="matrix(-.17506 .99954 -.99434 -.0349 1127.181 578.969)"/><rect x="963" y="1101" width="11" height="29" fill="#c8cdd0" rx="0" transform="matrix(.51588 .90977 -.85862 .42423 1447.611 -154.11)"/><rect x="613" y="238" width="10" height="20" fill="#c8ced3" rx="0" transform="matrix(1.0452 .20794 .10829 .9783 24.33 -112.34)"/><rect x="1111" y="495" width="10" height="24" fill="#c8ced3" rx="0" transform="matrix(.45163 1.0267 -.93449 .08982 1182.184 -406.079)"/><rect x="390" y="1718" width="12" height="28" fill="#d3d1d1" rx="0" transform="matrix(.99273 .10556 -.02845 1.0043 408.476 -104.894)"/><rect x="220" y="983" width="12" height="21" fill="#cdb2b2" rx="0" transform="matrix(-.98961 .22776 -.1042 -.98652 586.625 1886.336)"/><rect x="665" y="1369" width="9" height="26" fill="#cdb2b2" rx="0" transform="matrix(-.77532 .34628 -.75762 -.9514 2662.3 2571.045)"/><rect x="654" y="672" width="10" height="13" fill="#d3d1d1" rx="0" transform="matrix(.53915 .87454 -.83218 .50491 800.874 -147.787)"/><rect x="1022" y="1813" width="12" height="24" fill="#d3d1d1" rx="0" transform="matrix(.96961 .40773 -.27482 .91578 905.415 -337.323)"/><rect x="737" y="1584" width="10" height="27" fill="#d3d1d1" rx="0" transform="matrix(.98936 -.03498 .25237 1.00183 47.93 -28.852)"/><rect x="1362" y="1643" width="12" height="31" fill="#cdb2b2" rx="0" transform="matrix(-.92407 .461 -.35564 -.90475 3321.058 2287.176)"/><rect x="1214" y="207" width="9" height="18" fill="#c8cdd0" rx="0" transform="matrix(.8118 .81648 -.61304 .61526 394.949 -652.774)"/><rect x="837" y="1644" width="7" height="11" fill="#d3d1d1" rx="0" transform="matrix(.76769 .72875 -.60452 .72875 964.147 44.463)"/><rect x="579" y="1552" width="7" height="15" fill="#c8ced3" rx="0" transform="matrix(.08743 1.00076 -1.0023 -.03495 2205.83 1061.584)"/><rect x="341" y="975" width="8" height="20" fill="#c8cdd0" rx="0" transform="matrix(.92846 .5358 -.32117 .89171 265.242 20.743)"/><rect x="326" y="827" width="10" height="12" fill="#d3d1d1" rx="0" transform="matrix(-.51967 .9148 -.86176 -.4073 1070.921 886.825)"/><rect x="221" y="139" width="12" height="24" fill="#d3d1d1" rx="0" transform="matrix(.81557 .69561 -.59304 .72033 145.667 -103.777)"/><rect x="102" y="996" width="9" height="10" fill="#d3d1d1" rx="0" transform="matrix(-.83867 .25586 -.54464 -1.0262 741.002 2037.653)"/><rect x="557" y="1355" width="10" height="24" fill="#c8ced3" rx="0" transform="matrix(-.25613 .98169 -.95952 -.22664 2131.172 1056.104)"/><rect x="550" y="1551" width="11" height="22" fill="#c8ced3" rx="0" transform="matrix(.80337 .89441 -.70872 .45572 1708.658 401.913)"/><rect x="176" y="1386" width="7" height="9" fill="#c8cdd0" rx="0" transform="matrix(-.05522 .96258 -1.02304 -.27602 1858.79 1610.924)"/><rect x="643" y="1355" width="13" height="30" fill="#c8cdd0" rx="0" transform="matrix(-.0002 .99386 -1.00614 -.19319 2079.467 1092.023)"/><rect x="1035" y="1264" width="11" height="29" fill="#c8cdd0" rx="0" transform="matrix(.86536 .53065 -.49963 .84921 755.608 -304.825)"/><rect x="370" y="1568" width="12" height="29" fill="#c8cdd0" rx="0" transform="matrix(-.96025 .17535 -.2569 -.99449 1057.89 3143.184)"/><rect x="1070" y="1820" width="12" height="31" fill="#cdb2b2" rx="0" transform="matrix(.19431 1.01955 -1.01509 -.17977 2953.336 1356.755)"/><rect x="1044" y="1603" width="10" height="26" fill="#d3d1d1" rx="0" transform="matrix(-.38944 .73854 -.99086 -.6887 3498.429 2101.638)"/><rect x="993" y="995" width="11" height="12" fill="#c8cdd0" rx="0" transform="matrix(-.92365 .17407 -.50644 -.98721 2714.645 1885.21)"/><rect x="305" y="1085" width="7" height="19" fill="#c8ced3" rx="0" transform="matrix(.86938 .27989 -.54096 .9761 523.061 -114.574)"/><rect x="252" y="15" width="11" height="19" fill="#c8ced3" rx="0" transform="matrix(.88288 .88222 -.58182 .55127 59.99 -142.342)"/><rect x="1301" y="1039" width="10" height="16" fill="#cdb2b2" rx="0" transform="matrix(.4961 1.00586 -.83299 .32682 1372.927 -159.14)"/><rect x="1148" y="1913" width="7" height="8" fill="#c8cdd0" rx="0" transform="matrix(-.10878 .93758 -1.01815 -.41744 3419.526 1903.45)"/><rect x="158" y="1799" width="9" height="18" fill="#d3d1d1" rx="0" transform="matrix(.73884 .97324 -.81563 .27907 2112.917 1171.021)"/><rect x="77" y="1027" width="7" height="7" fill="#d3d1d1" rx="0" transform="matrix(.6257 .99451 -.80222 .32314 912.112 642.06)"/><rect x="1198" y="841" width="11" height="19" fill="#d3d1d1" rx="0" transform="matrix(-.03492 1 -.99878 -.03492 2063.822 -281.273)"/><rect x="1016" y="1879" width="8" height="12" fill="#c8ced3" rx="0" transform="matrix(-.78554 .42268 -.68125 -.90645 3615.263 3180.318)"/><rect x="159" y="1376" width="10" height="20" fill="#c8ced3" rx="0" transform="matrix(.60894 .87454 -.7919 .50491 1526.899 519.717)"/><rect x="911" y="622" width="10" height="14" fill="#cdb2b2" rx="0" transform="matrix(.31769 1.0249 -.99236 -.05371 1367.311 -64.546)"/><rect x="1252" y="148" width="8" height="13" fill="#c8cdd0" rx="0" transform="matrix(.49795 .91444 -.83984 .46593 689.928 -776.057)"/><rect x="1352" y="1458" width="12" height="22" fill="#d3d1d1" rx="0" transform="matrix(1.00124 .29309 -.13705 .95864 516.856 -432.213)"/><rect x="415" y="1239" width="10" height="26" fill="#c8cdd0" rx="0" transform="matrix(.37502 .99313 -.94752 .1573 1841.243 593.807)"/><rect x="46" y="411" width="7" height="17" fill="#c8cdd0" rx="0" transform="matrix(-.71785 .517 -.7395 -.86044 469.989 759.194)"/><rect x="800" y="1491" width="7" height="8" fill="#d3d1d1" rx="0" transform="matrix(.0177 .99315 -1.00472 .12194 2188.752 486.638)"/><rect x="247" y="924" width="7" height="15" fill="#d3d1d1" rx="0" transform="matrix(.40024 1.01484 -.95036 .08879 1155.852 643.27)"/><rect x="175" y="1483" width="9" height="26" fill="#d3d1d1" rx="0" transform="matrix(.29665 1.04426 -.97316 -.05473 1663.383 1445.306)"/><rect x="987" y="237" width="7" height="8" fill="#c8ced3" rx="0" transform="matrix(.39224 .88308 -.92384 .46954 808.989 -764.142)"/><rect x="218" y="331" width="12" height="14" fill="#c8ced3" rx="0" transform="matrix(-.72439 .88552 -.72774 -.49085 595.095 270.073)"/><rect x="1155" y="602" width="9" height="24" fill="#d3d1d1" rx="0" transform="matrix(.44712 1 -.92116 .17633 1292.674 -449.314)"/><rect x="1314" y="599" width="10" height="26" fill="#c8cdd0" rx="0" transform="matrix(.53523 1.00737 -.95526 .07044 1456.739 -574.455)"/><rect x="260" y="697" width="11" height="27" fill="#c8cdd0" rx="0" transform="matrix(.14091 1.01757 -1.01269 -.21629 1002.61 670.141)"/><rect x="478" y="1771" width="10" height="24" fill="#c8ced3" rx="0" transform="matrix(-.90705 .50623 -.40432 -.87682 1731.442 3025.361)"/><rect x="1028" y="799" width="11" height="26" fill="#cdb2b2" rx="0" transform="matrix(.95618 .85442 -.52544 .57631 738.652 -281.325)"/><rect x="239" y="1896" width="8" height="13" fill="#d3d1d1" rx="0" transform="matrix(.075 .94675 -1.02895 .34459 1885.747 987.023)"/><rect x="1220" y="1711" width="9" height="13" fill="#c8ced3" rx="0" transform="matrix(.17916 1.01632 -.95877 .14283 2299.105 510.402)"/><rect x="597" y="275" width="11" height="14" fill="#c8cdd0" rx="0" transform="matrix(.71646 1.01665 -.77818 .29152 459.07 -205.283)"/><rect x="1332" y="1458" width="9" height="11" fill="#cdb2b2" rx="0" transform="matrix(.87395 .55127 -.41537 .88222 483.865 -181.178)"/><rect x="884" y="1364" width="7" height="12" fill="#d3d1d1" rx="0" transform="matrix(.47707 .99832 -.95154 .10493 2182.813 417.885)"/><rect x="778" y="1540" width="12" height="22" fill="#cdb2b2" rx="0" transform="matrix(-.65353 .44658 -.89932 -.91562 3244.678 2773.4)"/><rect x="72" y="411" width="9" height="11" fill="#c8cdd0" rx="0" transform="matrix(-.7894 .55 -.60264 -.84691 474.131 716.413)"/><rect x="1335" y="1458" width="13" height="25" fill="#c8ced3" rx="0" transform="matrix(.6489 1.01757 -.84481 .21629 2040.415 172.049)"/><rect x="1227" y="1425" width="12" height="15" fill="#d3d1d1" rx="0" transform="matrix(.2483 .89162 -.98952 .47409 2211.978 -519.287)"/><rect x="228" y="1017" width="10" height="13" fill="#d3d1d1" rx="0" transform="matrix(-.96486 .12204 -.33607 -.9939 1072.759 2000.12)"/><rect x="906" y="1490" width="11" height="16" fill="#cdb2b2" rx="0" transform="matrix(-.99269 .20791 -.13951 -.97815 1920.574 2773.754)"/><rect x="726" y="1691" width="8" height="16" fill="#c8cdd0" rx="0" transform="matrix(.72324 .90128 -.67497 .54154 1281.199 358.176)"/><rect x="743" y="386" width="12" height="26" fill="#c8ced3" rx="0" transform="matrix(-.05214 .99405 -1.01331 .1397 1157.318 -466.815)"/><rect x="959" y="764" width="8" height="8" fill="#cdb2b2" rx="0" transform="matrix(.54703 .98017 -.84249 .31848 1100.84 -180.393)"/><rect x="163" y="402" width="7" height="13" fill="#c8ced3" rx="0" transform="matrix(.93936 .20842 -.3787 .98054 123.083 -38.394)"/><rect x="437" y="1983" width="13" height="36" fill="#cdb2b2" rx="0" transform="matrix(1.0193 .08717 .17866 .99635 134.777 -23.607)"/><rect x="1283" y="212" width="10" height="22" fill="#c8cdd0" rx="0" transform="matrix(-.91627 .6491 -.44861 -.77357 2563.786 -621.557)"/><rect x="114" y="1973" width="11" height="18" fill="#c8ced3" rx="0" transform="matrix(-.90537 .49085 -.40394 -.88552 1165.576 3659.52)"/><rect x="787" y="1551" width="8" height="12" fill="#cdb2b2" rx="0" transform="matrix(.87944 .42495 -.46728 .9113 900.16 -281.164)"/><rect x="741" y="1545" width="9" height="15" fill="#cdb2b2" rx="0" transform="matrix(.28076 1.0032 -.987 .03503 2324.728 815.443)"/><rect x="1107" y="671" width="8" height="10" fill="#cdb2b2" rx="0" transform="matrix(-.94123 .16055 -.28592 -1.01367 2268.407 1439.364)"/><rect x="985" y="491" width="11" height="19" fill="#d3d1d1" rx="0" transform="matrix(.79622 .57577 -.5997 .82228 523.68 -568.007)"/><rect x="443" y="934" width="11" height="17" fill="#c8cdd0" rx="0" transform="matrix(-.10453 .99042 -.99498 -.1392 1482.137 621.66)"/><rect x="511" y="613" width="11" height="22" fill="#c8ced3" rx="0" transform="matrix(1.03905 .37512 -.09408 .92846 200.867 -122.038)"/><rect x="791" y="166" width="11" height="14" fill="#d3d1d1" rx="0" transform="matrix(-.23948 .97564 -.96526 -.24325 1163.617 -645.73)"/><rect x="1053" y="1611" width="13" height="20" fill="#c8ced3" rx="0" transform="matrix(.60182 .74598 -.79864 .67169 1716.465 -350.868)"/><rect x="418" y="344" width="13" height="22" fill="#d3d1d1" rx="0" transform="matrix(.03492 1 -1.00061 -.01746 777.548 -55.894)"/><rect x="642" y="123" width="7" height="13" fill="#d3d1d1" rx="0" transform="matrix(-.00452 .95814 -1.04196 -.3678 822.493 -292.323)"/><rect x="90" y="389" width="8" height="15" fill="#c8cdd0" rx="0" transform="matrix(-.0198 .96846 -1.02536 -.3525 539.156 468.664)"/><rect x="1382" y="624" width="7" height="12" fill="#c8cdd0" rx="0" transform="matrix(.98279 .41073 -.22729 .92252 210.263 -325.542)"/><rect x="673" y="852" width="11" height="29" fill="#c8cdd0" rx="0" transform="matrix(.92286 .80105 -.474 .67216 575.927 -51.996)"/><rect x="190" y="1746" width="10" height="15" fill="#cdb2b2" rx="0" transform="matrix(.88516 .34223 -.49006 .94027 667.24 31.2)"/><rect x="580" y="28" width="13" height="18" fill="#d3d1d1" rx="0" transform="matrix(1.04206 .57577 -.2486 .82228 11.533 -279.8)"/><rect x="1040" y="777" width="8" height="19" fill="#c8ced3" rx="0" transform="matrix(-.90303 .60264 -.461 -.79973 2259.49 731.618)"/><rect x="869" y="1686" width="8" height="21" fill="#c8cdd0" rx="0" transform="matrix(.03591 1.00229 -.99834 -.0175 2736.148 790.136)"/><rect x="381" y="506" width="8" height="11" fill="#c8ced3" rx="0" transform="matrix(.95351 .81714 -.45164 .6617 338.38 -16.468)"/><rect x="253" y="294" width="8" height="10" fill="#c8ced3" rx="0" transform="matrix(.85543 .69561 -.55176 .72033 273.32 -108.619)"/><rect x="849" y="281" width="8" height="15" fill="#c8cdd0" rx="0" transform="matrix(-.45399 .76083 -.891 -.70948 1497.31 88.794)"/><rect x="1346" y="503" width="11" height="32" fill="#c8ced3" rx="0" transform="matrix(.95367 .32681 -.2902 .94913 262.43 -533.526)"/><rect x="321" y="1611" width="9" height="22" fill="#cdb2b2" rx="0" transform="matrix(-.60616 .71978 -.80396 -.69508 1969.723 2526.502)"/><rect x="798" y="604" width="8" height="18" fill="#d3d1d1" rx="0" transform="matrix(-.56505 .72033 -.8426 -.69561 1903.5 419.677)"/><rect x="1179" y="395" width="13" height="26" fill="#c8ced3" rx="0" transform="matrix(.20534 .95996 -.97893 .29349 1251.245 -746.055)"/><rect x="415" y="1029" width="10" height="24" fill="#c8ced3" rx="0" transform="matrix(.65325 .90998 -.75159 .48384 908.043 259.846)"/><rect x="467" y="1823" width="11" height="15" fill="#c8cdd0" rx="0" transform="matrix(.01911 .9757 -1.02049 .22526 2045.468 932.378)"/><rect x="373" y="1098" width="10" height="15" fill="#cdb2b2" rx="0" transform="matrix(1.00908 .05237 .15874 .99924 18.337 -5.753)"/><rect x="783" y="1215" width="10" height="24" fill="#cdb2b2" rx="0" transform="matrix(.32867 .97874 -.95186 .20804 1886.92 172.97)"/><rect x="1355" y="75" width="11" height="25" fill="#c8cdd0" rx="0" transform="matrix(-.03414 1.01156 -.99156 .0885 1485.725 -1536.368)"/><rect x="438" y="1242" width="10" height="27" fill="#d3d1d1" rx="0" transform="matrix(-.0166 .95645 -1.04046 -.29242 2138.129 1191.188)"/><rect x="393" y="802" width="8" height="22" fill="#d3d1d1" rx="0" transform="matrix(.95045 .22581 -.31164 .9781 123.553 -37.102)"/><rect x="200" y="696" width="8" height="20" fill="#d3d1d1" rx="0" transform="matrix(-.53703 .84691 -.832 -.55 996.143 892.853)"/><rect x="596" y="1584" width="7" height="9" fill="#cdb2b2" rx="0" transform="matrix(1.00677 .26366 -.0354 .984 111.705 -16.127)"/><rect x="483" y="1386" width="10" height="10" fill="#c8ced3" rx="0" transform="matrix(.57688 .71406 -.82357 .71406 1305.89 -19.295)"/><rect x="1254" y="1738" width="10" height="29" fill="#c8cdd0" rx="0" transform="matrix(.8784 .64318 -.50794 .76651 1295.723 -356.609)"/><rect x="445" y="966" width="7" height="19" fill="#c8cdd0" rx="0" transform="matrix(-.45364 .91311 -.88362 -.4258 1350.7 1036.397)"/><rect x="494" y="1955" width="10" height="20" fill="#cdb2b2" rx="0" transform="matrix(-.34055 .93415 -.9329 -.37742 2324.817 2301.76)"/><rect x="242" y="1189" width="10" height="13" fill="#c8cdd0" rx="0" transform="matrix(-.72745 .58242 -.67806 -.83179 1194.031 2089.597)"/><rect x="131" y="1756" width="11" height="21" fill="#c8cdd0" rx="0" transform="matrix(-.5552 .96291 -.85812 -.31287 1544.764 2166.126)"/><rect x="741" y="1372" width="8" height="12" fill="#c8ced3" rx="0" transform="matrix(-.9959 -.03555 -.39148 -1.0181 2377.972 2952.237)"/><rect x="849" y="578" width="11" height="22" fill="#d3d1d1" rx="0" transform="matrix(.3901 .88781 -.91894 .47206 1071.128 -537.488)"/><rect x="561" y="340" width="10" height="12" fill="#cdb2b2" rx="0" transform="matrix(.97655 .887 -.49322 .57602 298.9 -160.453)"/><rect x="949" y="1768" width="12" height="18" fill="#c8ced3" rx="0" transform="matrix(-1.00578 -.23523 -.10534 -1.0189 2174.952 4104.186)"/><rect x="338" y="1279" width="8" height="23" fill="#c8cdd0" rx="0" transform="matrix(.79864 .80094 -.60182 .64859 845.509 264.85)"/><rect x="1177" y="1710" width="13" height="36" fill="#cdb2b2" rx="0" transform="matrix(-.73779 .77762 -.68853 -.6297 3069.17 1854.487)"/><rect x="1376" y="421" width="9" height="15" fill="#c8ced3" rx="0" transform="matrix(1.07568 .30415 .23059 .99484 2.248 -21.823)"/><rect x="159" y="1383" width="7" height="12" fill="#cdb2b2" rx="0" transform="matrix(1.00264 .39367 -.17816 .92742 395.125 56.799)"/><rect x="134" y="863" width="7" height="19" fill="#d3d1d1" rx="0" transform="matrix(.6019 .80902 -.79876 .58779 766.883 248.418)"/><rect x="149" y="1544" width="12" height="12" fill="#c8ced3" rx="0" transform="matrix(-.70092 .88632 -.75557 -.47126 1163.867 2129.52)"/><rect x="73" y="1417" width="10" height="22" fill="#cdb2b2" rx="0" transform="matrix(.84407 .43864 -.54918 .89934 569.785 112.25)"/><rect x="373" y="852" width="9" height="26" fill="#c8ced3" rx="0" transform="matrix(-.83248 .30977 -.66608 -.95338 1540.45 1599.131)"/><rect x="49" y="318" width="13" height="25" fill="#d3d1d1" rx="0" transform="matrix(.97906 .12194 -.22673 .99315 29.377 -2.566)"/><rect x="1301" y="1322" width="9" height="10" fill="#d3d1d1" rx="0" transform="matrix(-.97437 -.11055 -.22495 -1.05183 2876.05 3316.619)"/><rect x="584" y="95" width="13" height="30" fill="#c8cdd0" rx="0" transform="matrix(.25933 .9461 -.96768 .32577 540.687 -505.124)"/><rect x="822" y="405" width="12" height="16" fill="#cdb2b2" rx="0" transform="matrix(.8725 .517 -.48214 .86044 346.51 -442.883)"/><rect x="710" y="1077" width="10" height="13" fill="#c8cdd0" rx="0" transform="matrix(-.93581 .12415 -.43317 -1.01112 2003.545 2229.267)"/><rect x="1229" y="1762" width="10" height="18" fill="#c8cdd0" rx="0" transform="matrix(-.8934 .3956 -.42308 -.93198 3391.986 2737.916)"/><rect x="1073" y="891" width="13" height="27" fill="#d3d1d1" rx="0" transform="matrix(-.06976 .99146 -.99756 -.15703 2057.099 70.697)"/><rect x="485" y="1169" width="12" height="12" fill="#d3d1d1" rx="0" transform="matrix(.79591 .84072 -.67259 .54597 1169.697 155.028)"/><rect x="354" y="1457" width="9" height="19" fill="#d3d1d1" rx="0" transform="matrix(-.2615 .88416 -.99197 -.47012 2322.101 1820.166)"/><rect x="221" y="163" width="11" height="18" fill="#c8ced3" rx="0" transform="matrix(-1.00352 .36284 -.14182 -.94522 468.67 216.521)"/><rect x="22" y="1446" width="8" height="9" fill="#c8ced3" rx="0" transform="matrix(.1109 1.0292 -.96582 .05394 1167.127 1351.986)"/><rect x="226" y="378" width="10" height="15" fill="#cdb2b2" rx="0" transform="matrix(.28486 .9926 -.94168 .22916 475.37 112.768)"/><rect x="1166" y="1950" width="10" height="28" fill="#cdb2b2" rx="0" transform="matrix(-.65287 .40648 -.92209 -.9576 4449.61 3704.522)"/><rect x="487" y="96" width="12" height="14" fill="#cdb2b2" rx="0" transform="matrix(.5236 .92945 -.86436 .37552 339.716 -428.37)"/><rect x="725" y="1167" width="12" height="33" fill="#c8ced3" rx="0" transform="matrix(-.96755 .08717 -.41283 -.99635 2329.976 2286.196)"/><rect x="1073" y="180" width="11" height="15" fill="#c8ced3" rx="0" transform="matrix(.00115 .98354 -1.0165 .20906 1260.054 -1025.796)"/><rect x="706" y="520" width="13" height="16" fill="#d3d1d1" rx="0" transform="matrix(-.42964 .97675 -.92461 -.2255 1439.614 -98.693)"/><rect x="575" y="92" width="13" height="31" fill="#c8ced3" rx="0" transform="matrix(.15603 1.00921 -.98542 .03524 593.397 -401.421)"/><rect x="52" y="1861" width="12" height="24" fill="#d3d1d1" rx="0" transform="matrix(-.11139 .86073 -1.08947 -.55897 2610.489 2883.41)"/><rect x="356" y="1488" width="8" height="12" fill="#cdb2b2" rx="0" transform="matrix(.90196 .71945 -.51894 .69476 1265.437 190.737)"/><rect x="663" y="1394" width="9" height="19" fill="#c8cdd0" rx="0" transform="matrix(-.8854 .22916 -.52861 -.9926 2188.678 2773.408)"/><rect x="1244" y="1365" width="10" height="28" fill="#c8ced3" rx="0" transform="matrix(.38032 .97496 -.93787 .22509 2326.878 -192.743)"/><rect x="400" y="567" width="9" height="24" fill="#c8cdd0" rx="0" transform="matrix(-.83306 .32636 -.6447 -.94783 1277.475 1024.064)"/><rect x="225" y="1841" width="9" height="15" fill="#d3d1d1" rx="0" transform="matrix(1.02526 .67416 -.34467 .74873 1205.08 337.94)"/><rect x="1314" y="1588" width="8" height="12" fill="#c8ced3" rx="0" transform="matrix(1.0334 .51512 -.22145 .8573 834.366 -428.45)"/><rect x="860" y="656" width="11" height="25" fill="#c8ced3" rx="0" transform="matrix(-1.04436 -.17977 -.36034 -1.01955 2251.551 1737.572)"/><rect x="17" y="1536" width="13" height="31" fill="#c8cdd0" rx="0" transform="matrix(-.5955 .89114 -.81873 -.45406 1034.112 2235.442)"/><rect x="271" y="1006" width="8" height="14" fill="#c8cdd0" rx="0" transform="matrix(-.74736 .63716 -.64653 -.78683 1005.735 1678.397)"/><rect x="1245" y="1491" width="10" height="21" fill="#c8ced3" rx="0" transform="matrix(1.03136 .12217 .21427 .99497 64.822 -57.747)"/><rect x="1234" y="1358" width="8" height="12" fill="#d3d1d1" rx="0" transform="matrix(.46835 .74873 -.9139 .67416 1734.406 -634.478)"/><rect x="466" y="1339" width="11" height="12" fill="#c8ced3" rx="0" transform="matrix(1.0404 .25886 .01972 .96607 363.117 -84.65)"/><rect x="57" y="15" width="11" height="17" fill="#cdb2b2" rx="0" transform="matrix(.21175 .98558 -1.07937 -.30132 85.103 -15.435)"/><rect x="771" y="691" width="7" height="12" fill="#c8cdd0" rx="0" transform="matrix(.78216 .95295 -.68465 .44437 745.627 -99.132)"/><rect x="210" y="1405" width="11" height="19" fill="#cdb2b2" rx="0" transform="matrix(.14737 .91266 -1.02382 .44513 1438.482 550.182)"/><rect x="604" y="434" width="8" height="18" fill="#c8ced3" rx="0" transform="matrix(-.79507 .40451 -.59903 -.95298 1346.196 782.137)"/><rect x="913" y="633" width="7" height="18" fill="#c8ced3" rx="0" transform="matrix(-.52994 .8573 -.84804 -.51512 1923.65 202.989)"/><rect x="755" y="1482" width="13" height="38" fill="#c8cdd0" rx="0" transform="matrix(1.03062 .24494 .05091 .9824 128.17 -39.478)"/><rect x="804" y="759" width="11" height="14" fill="#d3d1d1" rx="0" transform="matrix(.82254 .77456 -.57603 .67332 601.53 -189.88)"/><rect x="1359" y="187" width="8" height="9" fill="#cdb2b2" rx="0" transform="matrix(.91598 .32801 -.38845 .95262 190.166 -605.364)"/><rect x="177" y="311" width="7" height="9" fill="#cdb2b2" rx="0" transform="matrix(-.94244 .19127 -.37964 -.98402 510.676 604.056)"/><rect x="369" y="1329" width="11" height="19" fill="#cdb2b2" rx="0" transform="matrix(.159 .99756 -1.01636 -.08728 1939.337 1101.358)"/><rect x="1367" y="1246" width="8" height="20" fill="#cdb2b2" rx="0" transform="matrix(.17623 .9707 -1.0807 -.27835 2957.464 467.443)"/><rect x="417" y="1163" width="12" height="19" fill="#c8ced3" rx="0" transform="matrix(.86554 .76936 -.52045 .69273 712.006 148.171)"/><rect x="549" y="1089" width="12" height="24" fill="#d3d1d1" rx="0" transform="matrix(.78807 .86392 -.66507 .53984 998.293 135.044)"/><rect x="572" y="1826" width="10" height="14" fill="#d3d1d1" rx="0" transform="matrix(-.85224 .44268 -.51163 -.90763 1906.238 3322.346)"/><rect x="16" y="1912" width="11" height="17" fill="#c8ced3" rx="0" transform="matrix(-.97639 -.0365 -.55848 -1.04505 1667.64 3934.885)"/><rect x="190" y="333" width="12" height="18" fill="#c8ced3" rx="0" transform="matrix(-.0317 .90656 -1.08403 -.54471 652.547 418.095)"/><rect x="757" y="1666" width="9" height="10" fill="#c8cdd0" rx="0" transform="matrix(-.65987 .83018 -.75948 -.55996 2419.021 1934.607)"/><rect x="33" y="1239" width="8" height="18" fill="#c8cdd0" rx="0" transform="matrix(.79315 .71406 -.6073 .71406 1098.577 325.238)"/><rect x="153" y="1222" width="8" height="17" fill="#c8cdd0" rx="0" transform="matrix(.8179 .63405 -.56714 .78298 961.897 148.218)"/><rect x="127" y="1875" width="10" height="18" fill="#c8ced3" rx="0" transform="matrix(-.9962 0 .07183 -1.00382 -172.062 3786.745)"/><rect x="684" y="1899" width="9" height="24" fill="#c8ced3" rx="0" transform="matrix(.80908 .55304 -.56231 .8516 1457.54 -218.594)"/><rect x="433" y="1005" width="8" height="12" fill="#cdb2b2" rx="0" transform="matrix(-.30148 .96291 -.94056 -.31287 1668.817 837.304)"/><rect x="909" y="950" width="11" height="30" fill="#cdb2b2" rx="0" transform="matrix(-.92012 .70149 -.47273 -.7264 2079.654 895.952)"/><rect x="95" y="392" width="11" height="17" fill="#c8ced3" rx="0" transform="matrix(.83867 .5886 -.54464 .81013 234.342 22.158)"/><rect x="1087" y="996" width="11" height="28" fill="#cdb2b2" rx="0" transform="matrix(.58893 .87944 -.81064 .48748 1287.48 -328.314)"/><rect x="516" y="94" width="7" height="8" fill="#cdb2b2" rx="0" transform="matrix(.98525 .1392 -.17377 .99042 19.08 -62.305)"/><rect x="1385" y="1603" width="12" height="21" fill="#d3d1d1" rx="0" transform="matrix(-.6274 .70948 -.73666 -.76083 3133.607 2253.067)"/><rect x="93" y="1245" width="10" height="13" fill="#cdb2b2" rx="0" transform="matrix(-.97104 .24285 -.2232 -.974 340.053 2455.239)"/><rect x="902" y="673" width="13" height="21" fill="#c8ced3" rx="0" transform="matrix(.92423 .81977 -.49777 .64047 541.738 -238.513)"/><rect x="547" y="1774" width="11" height="27" fill="#cdb2b2" rx="0" transform="matrix(-.5991 .8656 -.7953 -.5201 2364.822 2161.29)"/><rect x="1134" y="1724" width="9" height="24" fill="#c8cdd0" rx="0" transform="matrix(-.65223 .58814 -.80255 -.80951 3684.256 2511.465)"/><rect x="850" y="544" width="8" height="16" fill="#c8cdd0" rx="0" transform="matrix(.3051 1.01632 -.94107 .14283 1073.647 -197.617)"/><rect x="737" y="1316" width="12" height="12" fill="#c8ced3" rx="0" transform="matrix(.189 .99023 -.97654 .1746 1771.061 433.522)"/><rect x="1081" y="375" width="7" height="18" fill="#c8ced3" rx="0" transform="matrix(.5634 .891 -.83526 .45399 841.391 -756.629)"/><rect x="1029" y="215" width="7" height="15" fill="#cdb2b2" rx="0" transform="matrix(.82789 .36284 -.59935 .94522 304.86 -525.97)"/><rect x="876" y="250" width="8" height="9" fill="#d3d1d1" rx="0" transform="matrix(-.96688 .10493 -.33111 -.99832 1861.711 493.226)"/><rect x="111" y="1815" width="8" height="16" fill="#d3d1d1" rx="0" transform="matrix(.56726 .97564 -.88353 .24325 2084.108 1279.435)"/><rect x="715" y="1798" width="9" height="22" fill="#cdb2b2" rx="0" transform="matrix(-.09272 .92502 -1.02967 -.51274 2828.821 2318.75)"/><rect x="1181" y="311" width="9" height="15" fill="#c8ced3" rx="0" transform="matrix(.75883 .57366 -.65946 .81928 469.894 -643.211)"/><rect x="355" y="863" width="8" height="20" fill="#cdb2b2" rx="0" transform="matrix(-.38808 .85084 -.91354 -.5739 1262.46 1151.445)"/><rect x="325" y="624" width="8" height="23" fill="#c8cdd0" rx="0" transform="matrix(-.86952 .5886 -.50218 -.81013 901.806 939.447)"/><rect x="512" y="915" width="7" height="9" fill="#d3d1d1" rx="0" transform="matrix(-.9063 .14553 -.42262 -1.03552 1371.3 1954.239)"/><rect x="225" y="561" width="11" height="15" fill="#c8cdd0" rx="0" transform="matrix(-.7141 .42313 -.75948 -.95036 904.78 1077.344)"/><rect x="1135" y="1683" width="13" height="13" fill="#cdb2b2" rx="0" transform="matrix(.98163 .20794 -.19079 .9783 401.607 -220.624)"/><rect x="85" y="267" width="8" height="9" fill="#c8ced3" rx="0" transform="matrix(.9937 .48957 -.24992 .88322 103.287 .643)"/><rect x="974" y="1002" width="8" height="18" fill="#cdb2b2" rx="0" transform="matrix(-.8942 .37466 -.45583 -.92733 2417.843 1565.034)"/><rect x="608" y="984" width="8" height="19" fill="#d3d1d1" rx="0" transform="matrix(-.62432 .52298 -.87307 -.87039 2136.09 1646.08)"/><rect x="70" y="1587" width="8" height="9" fill="#cdb2b2" rx="0" transform="matrix(-1.00412 .10467 -.00014 -.99589 65.33 3164.83)"/><rect x="108" y="868" width="10" height="26" fill="#c8cdd0" rx="0" transform="matrix(.5645 .97624 -.80765 .37474 712.77 475.085)"/><rect x="852" y="1924" width="9" height="17" fill="#d3d1d1" rx="0" transform="matrix(-.03564 1.00874 -.9831 -.23289 2635.695 1748.064)"/><rect x="730" y="1371" width="9" height="21" fill="#cdb2b2" rx="0" transform="matrix(-.66018 .51274 -.7593 -.92502 2296.892 2535.707)"/><rect x="625" y="1818" width="7" height="16" fill="#cdb2b2" rx="0" transform="matrix(.39367 .86603 -.92742 .5 1850.341 368.703)"/><rect x="405" y="1239" width="10" height="10" fill="#cdb2b2" rx="0" transform="matrix(-.92714 .24285 -.39928 -.974 1588.053 2320.221)"/><rect x="1024" y="1030" width="8" height="12" fill="#c8cdd0" rx="0" transform="matrix(-.18961 .90852 -1.01227 -.42365 2584.896 469.057)"/><rect x="905" y="430" width="12" height="18" fill="#cdb2b2" rx="0" transform="matrix(.49398 .96493 -.8947 .27669 926.653 -481.82)"/><rect x="351" y="129" width="7" height="14" fill="#c8ced3" rx="0" transform="matrix(-.63171 .83018 -.77847 -.55996 662.59 -63.564)"/><rect x="1149" y="1294" width="7" height="18" fill="#c8ced3" rx="0" transform="matrix(.85141 .31134 -.59157 .9582 737.269 -445.859)"/><rect x="775" y="1004" width="7" height="14" fill="#cdb2b2" rx="0" transform="matrix(.72053 .76897 -.69584 .64524 939.902 -171.874)"/><rect x="1358" y="562" width="12" height="26" fill="#cdb2b2" rx="0" transform="matrix(-.99452 -.19953 -.10453 -1.02648 2780.632 1854.398)"/><rect x="377" y="978" width="10" height="19" fill="#d3d1d1" rx="0" transform="matrix(.12146 1.0148 -.98965 -.03544 1294.469 702.195)"/><rect x="980" y="994" width="10" height="12" fill="#c8ced3" rx="0" transform="matrix(.85248 .61526 -.49405 .81648 533.552 -213.14)"/><rect x="286" y="733" width="8" height="17" fill="#c8cdd0" rx="0" transform="matrix(-.87462 .39288 -.48481 -.92558 903.126 1344.358)"/><rect x="988" y="658" width="13" height="27" fill="#cdb2b2" rx="0" transform="matrix(-.87545 .39676 -.458 -.9347 2296.38 729.22)"/><rect x="61" y="705" width="12" height="30" fill="#c8ced3" rx="0" transform="matrix(-.5389 .83448 -.821 -.58431 578.127 1097.818)"/><rect x="1199" y="1823" width="8" height="10" fill="#c8ced3" rx="0" transform="matrix(-.87462 .43897 -.48481 -.90003 3141.4 3008.213)"/><rect x="514" y="1293" width="11" height="20" fill="#c8ced3" rx="0" transform="matrix(.96106 .40773 -.29403 .91578 473.536 -65.745)"/><rect x="19" y="1469" width="13" height="25" fill="#c8cdd0" rx="0" transform="matrix(.59302 1.02756 -.90037 .12617 1660.625 1275.211)"/><rect x="141" y="759" width="8" height="20" fill="#cdb2b2" rx="0" transform="matrix(-.83164 .6297 -.56106 -.77762 657.008 1270.619)"/><rect x="1123" y="293" width="7" height="19" fill="#d3d1d1" rx="0" transform="matrix(.78592 .7283 -.6141 .70332 418.526 -552.27)"/><rect x="905" y="989" width="9" height="14" fill="#d3d1d1" rx="0" transform="matrix(.58779 .94472 -.80902 .401 1180.69 -52.651)"/><rect x="1236" y="1384" width="10" height="19" fill="#c8cdd0" rx="0" transform="matrix(-.81007 .27214 -.65139 -1.01563 3342.845 2874.288)"/><rect x="255" y="319" width="9" height="14" fill="#cdb2b2" rx="0" transform="matrix(-.99206 .05234 -.17473 -.99878 608.643 642.55)"/><rect x="1370" y="1643" width="8" height="12" fill="#cdb2b2" rx="0" transform="matrix(1.02911 .44268 -.14898 .90763 530.476 -262.815)"/><rect x="1136" y="773" width="10" height="21" fill="#c8ced3" rx="0" transform="matrix(.6365 .95106 -.84465 .30902 1346.33 -543.77)"/><rect x="1055" y="612" width="11" height="18" fill="#c8cdd0" rx="0" transform="matrix(-.18948 .85769 -1.05207 -.51535 2141.361 68.487)"/><rect x="891" y="512" width="13" height="13" fill="#cdb2b2" rx="0" transform="matrix(-.9703 0 -.57679 -1.03061 2308.584 1276.645)"/><rect x="729" y="535" width="9" height="26" fill="#c8ced3" rx="0" transform="matrix(.0509 1.00413 -.99322 .05262 1174.752 -140.274)"/><rect x="1388" y="1324" width="9" height="24" fill="#c8ced3" rx="0" transform="matrix(.98453 -.01767 .18975 1.01231 130.477 -212.392)"/><rect x="1139" y="1849" width="8" height="11" fill="#d3d1d1" rx="0" transform="matrix(-.43884 .86655 -.90063 -.5003 3505.538 1751.93)"/><rect x="1201" y="45" width="9" height="18" fill="#cdb2b2" rx="0" transform="matrix(-.72008 .67072 -.66259 -.77157 2054.633 -456.646)"/><rect x="83" y="244" width="10" height="12" fill="#c8cdd0" rx="0" transform="matrix(.79605 .90211 -.7029 .45965 254.607 69.64)"/><rect x="28" y="38" width="9" height="11" fill="#d3d1d1" rx="0" transform="matrix(-.17788 .96291 -.98072 -.31287 91.94 20.668)"/><rect x="156" y="891" width="9" height="9" fill="#c8cdd0" rx="0" transform="matrix(-.41336 .70332 -.99378 -.7283 1363.539 1460.237)"/><rect x="1172" y="1164" width="12" height="28" fill="#cdb2b2" rx="0" transform="matrix(-.9601 .03613 -.18363 -1.03465 2368.324 2669.895)"/><rect x="1313" y="1909" width="8" height="17" fill="#d3d1d1" rx="0" transform="matrix(.36812 .99589 -.96544 .10467 3105.669 474.23)"/><rect x="1381" y="719" width="13" height="29" fill="#cdb2b2" rx="0" transform="matrix(-.849 .32601 -.60165 -.94682 3234.334 902.928)"/><rect x="1043" y="493" width="9" height="9" fill="#c8ced3" rx="0" transform="matrix(.99003 .06985 -.15784 .99893 11.336 -17.742)"/><rect x="239" y="769" width="11" height="16" fill="#cdb2b2" rx="0" transform="matrix(-.99451 .10493 -.06823 -.99832 442.643 1548.431)"/><rect x="954" y="1309" width="9" height="14" fill="#c8ced3" rx="0" transform="matrix(-.85967 .44166 -.50159 -.90554 2675.51 1966.672)"/><rect x="1092" y="1700" width="11" height="32" fill="#c8ced3" rx="0" transform="matrix(-.49155 .84805 -.83499 -.59381 2715.39 2098.319)"/><rect x="711" y="1899" width="8" height="9" fill="#c8cdd0" rx="0" transform="matrix(1.01098 .10454 .05352 .99467 223.715 -77.09)"/><rect x="14" y="660" width="7" height="12" fill="#c8ced3" rx="0" transform="matrix(-.27656 .98178 -.9648 -.19084 618.349 775.612)"/><rect x="1308" y="1430" width="9" height="14" fill="#cdb2b2" rx="0" transform="matrix(-.682 .50976 -.73135 -.91963 3258.578 2515.906)"/><rect x="161" y="538" width="9" height="25" fill="#cdb2b2" rx="0" transform="matrix(.09578 .94235 -1.10998 -.48015 912.157 715.85)"/><rect x="41" y="609" width="12" height="24" fill="#d3d1d1" rx="0" transform="matrix(.3088 .99817 -1.02342 -.0698 882.426 619.072)"/><rect x="1364" y="237" width="13" height="24" fill="#d3d1d1" rx="0" transform="matrix(.72268 .83106 -.71582 .56056 599.345 -1125.384)"/><rect x="1376" y="768" width="13" height="24" fill="#cdb2b2" rx="0" transform="matrix(.3849 1.01732 -.9628 .05332 1748.756 -399.301)"/><rect x="1057" y="1644" width="8" height="8" fill="#cdb2b2" rx="0" transform="matrix(-.59324 .88308 -.81697 -.46954 2836.713 1466.337)"/><rect x="162" y="699" width="10" height="23" fill="#d3d1d1" rx="0" transform="matrix(-.56485 .92742 -.8385 -.39367 808.834 814.816)"/><rect x="541" y="1606" width="8" height="17" fill="#c8cdd0" rx="0" transform="matrix(.83856 .85862 -.64067 .53652 1483.86 366.653)"/><rect x="1331" y="1755" width="7" height="13" fill="#c8ced3" rx="0" transform="matrix(.97994 .42288 -.26328 .90686 744.655 -353.66)"/><rect x="908" y="1214" width="9" height="15" fill="#d3d1d1" rx="0" transform="matrix(-.79018 .41435 -.63865 -.93064 2511.471 2157.56)"/><rect x="607" y="1344" width="7" height="16" fill="#cdb2b2" rx="0" transform="matrix(.26281 .9962 -.98083 .08716 2014.525 625.989)"/><rect x="409" y="1106" width="8" height="15" fill="#c8cdd0" rx="0" transform="matrix(.34214 .95236 -.93885 .30944 1412.634 353.968)"/><rect x="1104" y="1124" width="10" height="17" fill="#c8ced3" rx="0" transform="matrix(-.13955 .99572 -.98468 -.13994 2247.637 303.286)"/><rect x="207" y="216" width="13" height="21" fill="#d3d1d1" rx="0" transform="matrix(-.95556 .03597 -.43877 -1.02999 561.2 505.344)"/><rect x="425" y="986" width="8" height="13" fill="#c8ced3" rx="0" transform="matrix(-.87133 .5634 -.48316 -.83526 1315.156 1527.13)"/><rect x="374" y="281" width="13" height="24" fill="#c8cdd0" rx="0" transform="matrix(.9765 .29398 -.2076 .96157 63.956 -60.609)"/><rect x="52" y="146" width="12" height="31" fill="#d3d1d1" rx="0" transform="matrix(-.55418 .71945 -.85478 -.69476 262.303 230.964)"/><rect x="839" y="209" width="11" height="13" fill="#c8cdd0" rx="0" transform="matrix(.81002 .54472 -.58848 .8388 280.25 -440.02)"/><rect x="1285" y="1170" width="10" height="24" fill="#c8ced3" rx="0" transform="matrix(.48846 .97284 -.85013 .35409 1531.083 -145.84)"/><rect x="930" y="1692" width="12" height="14" fill="#cdb2b2" rx="0" transform="matrix(.90358 .67282 -.48277 .74724 1163.081 -101.936)"/><rect x="225" y="1679" width="7" height="11" fill="#c8ced3" rx="0" transform="matrix(.6848 .89763 -.73446 .49756 1339.545 694.003)"/><rect x="251" y="1882" width="12" height="22" fill="#c8ced3" rx="0" transform="matrix(-.88027 .36106 -.47644 -.9406 1849.237 3549.192)"/><rect x="1179" y="932" width="7" height="11" fill="#c8cdd0" rx="0" transform="matrix(-.93194 .05445 -.58459 -1.03887 3150.862 2186.14)"/><rect x="1111" y="232" width="8" height="22" fill="#d3d1d1" rx="0" transform="matrix(1.02021 .19375 .08731 .99677 2.451 -18.645)"/><rect x="1227" y="1687" width="9" height="26" fill="#c8cdd0" rx="0" transform="matrix(-.95811 .03597 -.36575 -1.02999 3208.786 3713.729)"/><rect x="672" y="856" width="7" height="7" fill="#c8ced3" rx="0" transform="matrix(-.41296 .989 -.93085 -.19224 1672.905 273.722)"/><rect x="677" y="1182" width="7" height="12" fill="#c8cdd0" rx="0" transform="matrix(-.81442 .2199 -.71613 -1.0345 2361.944 2501.675)"/><rect x="1107" y="718" width="11" height="27" fill="#c8cdd0" rx="0" transform="matrix(-.97324 .42262 -.27907 -.9063 2283.518 924.301)"/><rect x="276" y="1799" width="9" height="18" fill="#cdb2b2" rx="0" transform="matrix(-.53409 .76792 -.85407 -.64436 2102.278 2777.212)"/><rect x="382" y="588" width="13" height="14" fill="#c8ced3" rx="0" transform="matrix(-.76635 .77715 -.66618 -.62932 977.69 667.524)"/><rect x="1030" y="1669" width="11" height="19" fill="#cdb2b2" rx="0" transform="matrix(-.0159 1.01295 -.98832 .07083 2841.75 328.108)"/><rect x="496" y="1836" width="11" height="28" fill="#c8ced3" rx="0" transform="matrix(-.01515 .99677 -1.0003 -.19375 2966.202 1620.134)"/><rect x="223" y="253" width="7" height="15" fill="#cdb2b2" rx="0" transform="matrix(1.02521 .34249 -.10304 .94098 97.146 -74.07)"/><rect x="624" y="664" width="11" height="29" fill="#cdb2b2" rx="0" transform="matrix(-.78414 .3558 -.65614 -.97756 1628.375 1298.304)"/><rect x="764" y="1116" width="7" height="8" fill="#d3d1d1" rx="0" transform="matrix(-.43515 .92742 -.89355 -.39367 2173.984 754.875)"/><rect x="915" y="602" width="12" height="30" fill="#c8ced3" rx="0" transform="matrix(-.9563 0 -.63214 -1.0457 2483.751 1543.77)"/><rect x="369" y="994" width="13" height="33" fill="#c8ced3" rx="0" transform="matrix(-.91976 .08982 -.61997 -1.0267 1663.95 2107.866)"/></svg>