<svg viewBox="0 0 1400 2000" xmlns="http://www.w3.org/2000/svg"><path fill="none" d="M0 0h1400v2000H0z"/><rect x="1025" y="1697" width="7" height="13" fill="#18a8dd" rx="0" transform="matrix(.77331 .79692 -.60595 .6687 1125.646 39.674)"/><rect x="547" y="106" width="7" height="17" fill="#6737d5" rx="0" transform="matrix(-.29322 .97874 -.9594 -.20804 816.773 -419.702)"/><rect x="909" y="1673" width="13" height="32" fill="#e6e639" rx="0" transform="matrix(.99285 -.01762 -.1395 1.00967 214.91 -128.87)"/><rect x="494" y="1225" width="12" height="16" fill="#e6e639" rx="0" transform="matrix(-.1051 1 -.99633 -.03492 1649.598 793.518)"/><rect x="1310" y="937" width="13" height="13" fill="#e6e639" rx="0" transform="matrix(-.59397 .90223 -.81867 -.44005 2798.41 55.722)"/><rect x="451" y="133" width="8" height="21" fill="#e6e639" rx="0" transform="matrix(.7541 .89658 -.67998 .51764 223.374 -216.806)"/><rect x="1209" y="1957" width="7" height="15" fill="#6737d5" rx="0" transform="matrix(-.33118 .8516 -.95918 -.55304 3650.682 2232.17)"/><rect x="1020" y="1412" width="9" height="9" fill="#18a8dd" rx="0" transform="matrix(-.93509 .12278 -.52867 -1 3173.6 2833)"/><rect x="423" y="1695" width="12" height="30" fill="#0b536d" rx="0" transform="matrix(.03715 1 -1.0026 -.06993 2423.733 1370.576)"/><rect x="155" y="1662" width="8" height="23" fill="#a65373" rx="0" transform="matrix(.40632 .89318 -.91256 .4551 1650.583 758.757)"/><rect x="622" y="345" width="11" height="22" fill="#6737d5" rx="0" transform="matrix(-.75414 .63018 -.65555 -.77821 1327.312 270.489)"/><rect x="237" y="1147" width="12" height="35" fill="#0b536d" rx="0" transform="matrix(-.62932 .5967 -.77715 -.85216 1300.911 2081.527)"/><rect x="461" y="1845" width="7" height="8" fill="#0b536d" rx="0" transform="matrix(1.0123 .4884 -.14368 .91853 398.563 56.974)"/><rect x="630" y="352" width="9" height="16" fill="#18a8dd" rx="0" transform="matrix(.80168 .78316 -.6042 .65715 351.98 -238.62)"/><rect x="472" y="908" width="11" height="28" fill="#a65373" rx="0" transform="matrix(1.00259 .12194 -.0351 .99315 80.328 -35.239)"/><rect x="211" y="1500" width="10" height="26" fill="#18a8dd" rx="0" transform="matrix(-.1516 .89441 -1.0408 -.45572 2205.435 2028.216)"/><rect x="1176" y="259" width="11" height="20" fill="#6737d5" rx="0" transform="matrix(.90033 .4258 -.4178 .91311 245.367 -624.77)"/><rect x="1332" y="560" width="10" height="28" fill="#0b536d" rx="0" transform="matrix(-.7037 .50771 -.75076 -.87939 2808.216 635.704)"/><rect x="223" y="1966" width="10" height="20" fill="#6737d5" rx="0" transform="matrix(1.10344 .79692 -.32894 .6687 1329.312 538.347)"/><rect x="178" y="1150" width="11" height="15" fill="#e6e639" rx="0" transform="matrix(1.0267 .15643 .08982 .98769 179.728 -14.455)"/><rect x="1281" y="1559" width="11" height="14" fill="#e6e639" rx="0" transform="matrix(.76585 .68673 -.6056 .7627 954.542 -214.845)"/><rect x="983" y="550" width="12" height="12" fill="#e6e639" rx="0" transform="matrix(1.01806 .15646 .03632 .98784 76.451 -165.239)"/><rect x="903" y="1326" width="9" height="9" fill="#6737d5" rx="0" transform="matrix(-.97437 .37928 -.22495 -.93874 2091.038 2091.568)"/><rect x="667" y="1160" width="13" height="24" fill="#6737d5" rx="0" transform="matrix(-.0146 .97949 -1.01784 -.2082 2159.651 721.024)"/><rect x="560" y="665" width="7" height="18" fill="#a65373" rx="0" transform="matrix(-.99627 .25917 -.14027 -.96725 1174.378 1150.351)"/><rect x="781" y="1376" width="10" height="22" fill="#18a8dd" rx="0" transform="matrix(-.96418 .10686 -.18418 -1.01674 1608.481 2880.293)"/><rect x="952" y="851" width="13" height="26" fill="#0b536d" rx="0" transform="matrix(.07749 .92764 -1.1125 -.41301 2201.126 500.71)"/><rect x="200" y="1944" width="13" height="25" fill="#18a8dd" rx="0" transform="matrix(-.58736 .84497 -.80204 -.54873 1547.524 2880.958)"/><rect x="333" y="202" width="13" height="24" fill="#0b536d" rx="0" transform="matrix(.9594 .20804 -.29322 .97874 65.94 -77.936)"/><rect x="1114" y="899" width="10" height="23" fill="#6737d5" rx="0" transform="matrix(-.88594 .29349 -.50952 -.95996 2716.002 1554.028)"/><rect x="373" y="717" width="8" height="23" fill="#a65373" rx="0" transform="matrix(.99716 .36284 -.15837 .94522 157.754 -37.169)"/><rect x="670" y="1813" width="11" height="26" fill="#0b536d" rx="0" transform="matrix(-.91887 .24192 -.44816 -.9703 2502.676 3434.342)"/><rect x="177" y="345" width="13" height="14" fill="#e6e639" rx="0" transform="matrix(.17936 .9204 -1.00662 .4098 464.464 16.328)"/><rect x="975" y="24" width="13" height="27" fill="#0b536d" rx="0" transform="matrix(.10463 .99878 -.99574 .05234 918.049 -927.635)"/><rect x="991" y="1294" width="12" height="24" fill="#e6e639" rx="0" transform="matrix(1.00489 -.06993 -.06993 1 0 0)"/><rect x="624" y="1514" width="7" height="12" fill="#0b536d" rx="0" transform="matrix(-.41226 .74785 -.92491 -.74785 2352.678 2403.522)"/><rect x="259" y="353" width="12" height="26" fill="#0b536d" rx="0" transform="matrix(-.29042 .95105 -.93998 -.36508 634.732 299.1)"/><rect x="649" y="1813" width="11" height="25" fill="#e6e639" rx="0" transform="matrix(1.06438 .73826 -.32667 .71293 1158.516 191.956)"/><rect x="1360" y="1062" width="8" height="21" fill="#a65373" rx="0" transform="matrix(-.60687 .6165 -.84528 -.7891 3443.016 1006.402)"/><rect x="809" y="1765" width="7" height="11" fill="#a65373" rx="0" transform="matrix(.51341 1.01496 -.89474 .17896 2186.86 831.57)"/><rect x="267" y="1762" width="10" height="24" fill="#e6e639" rx="0" transform="matrix(1.00062 .03492 .01773 1 122.749 -18.997)"/><rect x="183" y="1815" width="9" height="23" fill="#18a8dd" rx="0" transform="matrix(.3502 .9875 -.91882 .2646 1603.896 1197.903)"/><rect x="460" y="933" width="10" height="21" fill="#18a8dd" rx="0" transform="matrix(.5459 .88119 -.83224 .48845 1168.677 15.8)"/><rect x="715" y="597" width="7" height="7" fill="#0b536d" rx="0" transform="matrix(.5651 .89658 -.7891 .51764 660.721 -162.01)"/><rect x="606" y="685" width="11" height="19" fill="#18a8dd" rx="0" transform="matrix(.88201 .42365 -.46895 .90852 409.211 -238.29)"/><rect x="408" y="941" width="9" height="23" fill="#a65373" rx="0" transform="matrix(-.61777 .6111 -.81659 -.81096 1552.887 1545.592)"/><rect x="816" y="456" width="10" height="20" fill="#18a8dd" rx="0" transform="matrix(-.72657 .37928 -.83827 -.93874 2013.382 722.101)"/><rect x="591" y="149" width="7" height="8" fill="#0b536d" rx="0" transform="matrix(-.1936 .99893 -.98753 -.06985 828.21 -399.022)"/><rect x="1041" y="455" width="11" height="22" fill="#a65373" rx="0" transform="matrix(-.29122 .9406 -.95137 -.36106 1763.442 -221.581)"/><rect x="338" y="258" width="7" height="9" fill="#a65373" rx="0" transform="matrix(-.79673 .32877 -.72778 -.95481 893.66 448.858)"/><rect x="473" y="1270" width="7" height="12" fill="#6737d5" rx="0" transform="matrix(-.70567 .78298 -.70573 -.63405 1734.51 1653.445)"/><rect x="1334" y="1814" width="13" height="38" fill="#6737d5" rx="0" transform="matrix(.50758 .99146 -.92822 .15703 2884.086 333.385)"/><rect x="777" y="1162" width="12" height="21" fill="#0b536d" rx="0" transform="matrix(-.81321 .41744 -.56907 -.93758 2039.728 2125.725)"/><rect x="215" y="1080" width="9" height="18" fill="#e6e639" rx="0" transform="matrix(-.53132 .67072 -.87973 -.77157 1413.514 1828.674)"/><rect x="604" y="1425" width="12" height="29" fill="#18a8dd" rx="0" transform="matrix(-.86837 .21256 -.6193 -1 2364.71 2879)"/><rect x="1368" y="163" width="8" height="12" fill="#6737d5" rx="0" transform="matrix(-.97883 .17535 -.1515 -.99449 2683.252 289.303)"/><rect x="1074" y="534" width="8" height="16" fill="#e6e639" rx="0" transform="matrix(.78509 .4551 -.6565 .89318 513.597 -508.083)"/><rect x="859" y="699" width="12" height="32" fill="#18a8dd" rx="0" transform="matrix(.99743 .06985 -.05202 .99893 86.242 -104.992)"/><rect x="1293" y="63" width="7" height="11" fill="#18a8dd" rx="0" transform="matrix(-.07994 .9106 -1.05203 -.52573 1541.033 -654.813)"/><rect x="1037" y="1600" width="9" height="10" fill="#18a8dd" rx="0" transform="matrix(1.00063 .0698 -.0172 .99817 164.188 -106.132)"/><rect x="688" y="442" width="8" height="11" fill="#0b536d" rx="0" transform="matrix(-.76604 .49388 -.64279 -.89099 1509.75 638.962)"/><rect x="905" y="587" width="8" height="15" fill="#0b536d" rx="0" transform="matrix(-.38015 .91 -.9135 -.44384 1893.39 -112.8)"/><rect x="604" y="102" width="9" height="20" fill="#0b536d" rx="0" transform="matrix(-.8 .75655 -.62636 -.65766 1156.924 -317.255)"/><rect x="1296" y="1548" width="9" height="14" fill="#a65373" rx="0" transform="matrix(-.8256 .36934 -.55678 -.96216 3207.185 2895.086)"/><rect x="567" y="1882" width="8" height="13" fill="#18a8dd" rx="0" transform="matrix(-.75356 .4232 -.74694 -.90755 2998.398 3390.69)"/><rect x="890" y="1222" width="8" height="14" fill="#e6e639" rx="0" transform="matrix(.98597 -.08764 .1412 1.00168 18.784 -17.684)"/><rect x="773" y="297" width="9" height="10" fill="#18a8dd" rx="0" transform="matrix(-.97496 .24285 -.20748 -.974 1610.454 339.313)"/><rect x="761" y="1586" width="10" height="29" fill="#e6e639" rx="0" transform="matrix(-.42355 .96349 -.9084 -.29457 2518.048 1239.871)"/><rect x="663" y="1070" width="10" height="12" fill="#e6e639" rx="0" transform="matrix(-.517 .8988 -.86044 -.43837 1845.057 947.293)"/><rect x="1284" y="958" width="9" height="11" fill="#18a8dd" rx="0" transform="matrix(-.6873 .80914 -.73653 -.58787 2745.154 509.831)"/><rect x="1145" y="1966" width="10" height="16" fill="#0b536d" rx="0" transform="matrix(.65113 .95419 -.81102 .3473 2346.921 393.896)"/><rect x="210" y="264" width="11" height="26" fill="#0b536d" rx="0" transform="matrix(.69108 .9824 -.84562 .24494 395.932 31.579)"/><rect x="1033" y="1751" width="8" height="23" fill="#6737d5" rx="0" transform="matrix(.17857 1.0043 -.97695 .10556 2917.357 389.263)"/><rect x="1180" y="1177" width="11" height="26" fill="#0b536d" rx="0" transform="matrix(.01775 1.00229 -.9974 .0175 2428.786 -101.931)"/><rect x="189" y="492" width="10" height="24" fill="#18a8dd" rx="0" transform="matrix(-.1578 .9563 -.99443 -.31072 753.288 495.471)"/><rect x="95" y="710" width="7" height="12" fill="#6737d5" rx="0" transform="matrix(-.6139 .90686 -.81644 -.42288 617.898 926.014)"/><rect x="1169" y="1602" width="13" height="19" fill="#a65373" rx="0" transform="matrix(-.53294 .60852 -.9098 -.83756 3573.24 2560.88)"/><rect x="241" y="1979" width="11" height="19" fill="#e6e639" rx="0" transform="matrix(.72095 .74326 -.69628 .66923 1557.778 478.82)"/><rect x="936" y="435" width="12" height="21" fill="#6737d5" rx="0" transform="matrix(-.16325 .84912 -1.07166 -.55143 1743.739 40.484)"/><rect x="717" y="644" width="10" height="17" fill="#18a8dd" rx="0" transform="matrix(1.01917 .3525 -.0368 .96846 68.39 -53.904)"/><rect x="135" y="1390" width="9" height="16" fill="#0b536d" rx="0" transform="matrix(-.6451 .43965 -.89113 -.94283 1833.829 2694.748)"/><rect x="700" y="1257" width="12" height="13" fill="#18a8dd" rx="0" transform="matrix(.0836 .96664 -1.0633 -.33284 2290.915 1151.661)"/><rect x="815" y="1312" width="10" height="13" fill="#6737d5" rx="0" transform="matrix(.12225 .97564 -1.05545 -.24325 2487.748 925.391)"/><rect x="166" y="1651" width="12" height="15" fill="#0b536d" rx="0" transform="matrix(.34202 .92177 -.9397 .39127 1671.653 842.025)"/><rect x="18" y="1346" width="12" height="22" fill="#a65373" rx="0" transform="matrix(.33248 1.03512 -.97188 -.01807 1454.142 1363.106)"/><rect x="735" y="1919" width="10" height="11" fill="#0b536d" rx="0" transform="matrix(-.57055 .79393 -.8138 -.62028 2587.427 2621.592)"/><rect x="579" y="1660" width="11" height="31" fill="#e6e639" rx="0" transform="matrix(.80733 .63279 -.58334 .78143 1345.646 -65.078)"/><rect x="1200" y="884" width="9" height="18" fill="#6737d5" rx="0" transform="matrix(.15584 .96258 -.99419 .27602 1736.01 -449.785)"/><rect x="913" y="34" width="7" height="12" fill="#a65373" rx="0" transform="matrix(1.05527 .36284 -.007 .94522 -11.019 -185.188)"/><rect x="705" y="1311" width="7" height="18" fill="#e6e639" rx="0" transform="matrix(.49138 1.0238 -.94239 .0716 1892.688 663.704)"/><rect x="225" y="246" width="11" height="25" fill="#6737d5" rx="0" transform="matrix(-.948 .1051 -.49466 -1 657.956 517)"/><rect x="1264" y="228" width="8" height="12" fill="#e6e639" rx="0" transform="matrix(-.11913 1.0148 -.98125 -.03544 1649.577 -1268.067)"/><rect x="499" y="1655" width="7" height="11" fill="#6737d5" rx="0" transform="matrix(-.97758 .45845 -.26265 -.89976 1318.688 2853.562)"/><rect x="963" y="1695" width="8" height="21" fill="#a65373" rx="0" transform="matrix(-.18544 .97318 -.97787 -.26076 3122.515 1090.433)"/><rect x="275" y="289" width="9" height="20" fill="#18a8dd" rx="0" transform="matrix(-.52742 .70948 -.84389 -.76083 672.619 408.332)"/><rect x="165" y="964" width="8" height="21" fill="#6737d5" rx="0" transform="matrix(-.66143 .63405 -.76037 -.78298 1073.925 1651.113)"/><rect x="527" y="1891" width="9" height="23" fill="#a65373" rx="0" transform="matrix(-.95169 .0363 -.29087 -1.03967 1554.834 4013.573)"/><rect x="320" y="76" width="7" height="16" fill="#18a8dd" rx="0" transform="matrix(-.79815 .44697 -.52564 -.95853 591.404 131.312)"/><rect x="1281" y="208" width="13" height="20" fill="#a65373" rx="0" transform="matrix(-.95253 .05394 -.36434 -1.0292 2631.004 693.93)"/><rect x="681" y="1249" width="10" height="25" fill="#18a8dd" rx="0" transform="matrix(-.92821 .27989 -.33578 -.9761 1601.037 2421.795)"/><rect x="697" y="273" width="10" height="16" fill="#6737d5" rx="0" transform="matrix(-.58647 .73854 -.80713 -.6887 1333.877 54.729)"/><rect x="364" y="1930" width="9" height="11" fill="#18a8dd" rx="0" transform="matrix(-.78327 .57674 -.61527 -.82366 2148.4 3278.444)"/><rect x="460" y="675" width="13" height="31" fill="#18a8dd" rx="0" transform="matrix(-.92714 .24285 -.39928 -.974 1336.699 1208.947)"/><rect x="73" y="171" width="9" height="23" fill="#18a8dd" rx="0" transform="matrix(.98109 .27907 -.16184 .97324 76.613 -29.02)"/><rect x="738" y="294" width="7" height="19" fill="#a65373" rx="0" transform="matrix(-.94552 0 -.2144 -1.05762 1448.94 879.807)"/><rect x="301" y="266" width="10" height="29" fill="#e6e639" rx="0" transform="matrix(.57852 .88416 -.82341 .47012 406.573 -137.957)"/><rect x="1008" y="1970" width="10" height="19" fill="#a65373" rx="0" transform="matrix(.69395 .9204 -.77751 .4098 2258.07 360.328)"/><rect x="656" y="714" width="7" height="14" fill="#e6e639" rx="0" transform="matrix(.6843 .58814 -.7584 .80951 631.936 -273.568)"/><rect x="499" y="757" width="11" height="18" fill="#18a8dd" rx="0" transform="matrix(.0508 1.01624 -.98758 -.07106 1174.93 405.808)"/><rect x="1181" y="946" width="11" height="28" fill="#a65373" rx="0" transform="matrix(.24772 .9974 -.96338 .15797 2000.559 -541.814)"/><rect x="1130" y="1096" width="10" height="28" fill="#6737d5" rx="0" transform="matrix(.29735 1.02234 -.97815 0 2001.465 190.895)"/><rect x="1017" y="1096" width="13" height="36" fill="#18a8dd" rx="0" transform="matrix(.69006 .61576 -.74078 .78813 942.877 -376.338)"/><rect x="174" y="27" width="9" height="10" fill="#e6e639" rx="0" transform="matrix(.90053 .5886 -.4595 .81013 36.805 -89.633)"/><rect x="887" y="1073" width="10" height="10" fill="#18a8dd" rx="0" transform="matrix(-.65362 .7098 -.75521 -.7098 2447.525 1131.984)"/><rect x="769" y="218" width="13" height="26" fill="#18a8dd" rx="0" transform="matrix(.81637 .81213 -.5935 .6345 294.322 -352.028)"/><rect x="627" y="600" width="9" height="18" fill="#0b536d" rx="0" transform="matrix(-.22776 .88416 -1.00992 -.47012 1577.491 303.858)"/><rect x="1071" y="351" width="10" height="18" fill="#e6e639" rx="0" transform="matrix(.35614 .95073 -.9292 .32736 994.226 -667.74)"/><rect x="1169" y="1332" width="13" height="30" fill="#e6e639" rx="0" transform="matrix(.879 .48748 -.4656 .87944 919.605 -534.185)"/><rect x="619" y="18" width="11" height="12" fill="#a65373" rx="0" transform="matrix(.78893 .67076 -.61464 .74496 143.801 -456.44)"/><rect x="672" y="1577" width="13" height="31" fill="#a65373" rx="0" transform="matrix(-.14044 1.00168 -1.0106 .08764 2196.406 701.985)"/><rect x="178" y="329" width="7" height="20" fill="#a65373" rx="0" transform="matrix(-.96267 -.18065 .07612 -1.0245 261.469 771.135)"/><rect x="1235" y="1610" width="11" height="31" fill="#a65373" rx="0" transform="matrix(-.1219 .99467 -.99254 -.10454 2947.565 583.198)"/><rect x="207" y="659" width="13" height="27" fill="#0b536d" rx="0" transform="matrix(.15715 1.03018 -.9928 -.14478 860.41 611.143)"/><rect x="1218" y="1651" width="11" height="31" fill="#a65373" rx="0" transform="matrix(-.02351 .94577 -1.04687 -.42108 3277.162 1538.922)"/><rect x="703" y="1150" width="7" height="11" fill="#18a8dd" rx="0" transform="matrix(-.59252 .60411 -.86901 -.80169 2432.772 1716.853)"/><rect x="347" y="812" width="11" height="13" fill="#18a8dd" rx="0" transform="matrix(1.09983 .75636 -.26003 .7304 445.188 68.58)"/><rect x="505" y="497" width="10" height="22" fill="#e6e639" rx="0" transform="matrix(.34522 .9951 -.95024 .1576 856.56 -16.95)"/><rect x="764" y="1633" width="12" height="16" fill="#0b536d" rx="0" transform="matrix(-.77327 .43897 -.6926 -.90003 2890.145 2820.29)"/><rect x="308" y="1074" width="12" height="22" fill="#18a8dd" rx="0" transform="matrix(1.01383 .30977 -.10793 .95338 268.337 -24.727)"/><rect x="357" y="326" width="11" height="17" fill="#a65373" rx="0" transform="matrix(.24864 1.01955 -1.02467 -.17977 683.485 122.18)"/><rect x="140" y="418" width="10" height="21" fill="#e6e639" rx="0" transform="matrix(.9933 .43373 -.17543 .93015 92.277 .516)"/><rect x="1088" y="480" width="9" height="26" fill="#18a8dd" rx="0" transform="matrix(.94659 .89416 -.59367 .49564 586.667 -496.002)"/><rect x="58" y="1382" width="7" height="9" fill="#e6e639" rx="0" transform="matrix(-.10773 .9397 -1.02497 -.34202 1834.936 1802.92)"/><rect x="222" y="408" width="11" height="32" fill="#6737d5" rx="0" transform="matrix(.86253 .34628 -.51803 .9514 237.373 -94.208)"/><rect x="928" y="574" width="12" height="21" fill="#6737d5" rx="0" transform="matrix(-.51504 .6997 -.85717 -.7771 1916.06 670.744)"/><rect x="1020" y="257" width="7" height="11" fill="#6737d5" rx="0" transform="matrix(-.08834 .97496 -1.00528 -.22509 1409.146 -640.549)"/><rect x="825" y="1471" width="13" height="32" fill="#6737d5" rx="0" transform="matrix(-.9283 .37667 -.3572 -.9323 2256.997 2472.721)"/><rect x="1025" y="1032" width="8" height="22" fill="#18a8dd" rx="0" transform="matrix(.1104 .93715 -1.0247 .35974 1816.125 -386.555)"/><rect x="832" y="1475" width="10" height="19" fill="#6737d5" rx="0" transform="matrix(.01767 .9939 -1.00396 .12204 2237.09 427.57)"/><rect x="673" y="1414" width="10" height="17" fill="#6737d5" rx="0" transform="matrix(-.83823 .24829 -.66566 -.99582 2528.853 2827.243)"/><rect x="338" y="427" width="7" height="20" fill="#6737d5" rx="0" transform="matrix(.454 .9176 -.87809 .42789 644.614 -117.437)"/><rect x="683" y="1902" width="11" height="30" fill="#6737d5" rx="0" transform="matrix(-.19209 .90656 -.98766 -.54471 2751.688 2574.123)"/><rect x="217" y="131" width="8" height="10" fill="#18a8dd" rx="0" transform="matrix(-.91258 .35924 -.40628 -.93586 475.29 199.338)"/><rect x="144" y="884" width="12" height="26" fill="#18a8dd" rx="0" transform="matrix(.8717 .78801 -.58797 .61566 838.107 226.55)"/><rect x="428" y="1729" width="8" height="19" fill="#18a8dd" rx="0" transform="matrix(-.88349 .21525 -.48935 -1.01265 1729.16 3521.765)"/><rect x="238" y="625" width="13" height="28" fill="#0b536d" rx="0" transform="matrix(-.83393 .36034 -.60267 -.93872 938.78 1176.438)"/><rect x="22" y="1758" width="8" height="21" fill="#0b536d" rx="0" transform="matrix(.58122 1.04426 -.98808 -.05473 2335.507 1846.083)"/><rect x="438" y="1964" width="7" height="19" fill="#e6e639" rx="0" transform="matrix(.67423 .87253 -.75682 .50375 2261.036 539.909)"/><rect x="1041" y="1420" width="11" height="32" fill="#a65373" rx="0" transform="matrix(-.17315 1.01185 -.98224 -.03533 2660.373 262.092)"/><rect x="711" y="687" width="10" height="19" fill="#0b536d" rx="0" transform="matrix(-.96007 .39169 -.29128 -.92275 1474.65 1108.818)"/><rect x="1358" y="1379" width="11" height="18" fill="#6737d5" rx="0" transform="matrix(-.93752 .34286 -.34087 -.94199 3011.206 2323.34)"/><rect x="823" y="1445" width="8" height="9" fill="#6737d5" rx="0" transform="matrix(.33523 1.02253 -.92487 .16195 1773.506 590.71)"/><rect x="396" y="127" width="13" height="35" fill="#6737d5" rx="0" transform="matrix(-.23508 .87475 -1.01287 -.48488 684.082 -130.497)"/><rect x="389" y="1047" width="10" height="12" fill="#0b536d" rx="0" transform="matrix(.93209 .46954 -.37673 .88308 516.183 -55.008)"/><rect x="339" y="1189" width="10" height="21" fill="#e6e639" rx="0" transform="matrix(-.9763 .05299 -.24322 -1.01108 1015.378 2448.544)"/><rect x="969" y="1022" width="8" height="21" fill="#a65373" rx="0" transform="matrix(1.01838 .37681 -.0009 .98162 53.719 -31.517)"/><rect x="195" y="317" width="8" height="15" fill="#a65373" rx="0" transform="matrix(1.00473 .50623 -.23514 .87682 125.397 -29.25)"/><rect x="1049" y="924" width="12" height="14" fill="#0b536d" rx="0" transform="matrix(-.00024 .90128 -1.1094 -.54154 2405.685 827.118)"/><rect x="851" y="1182" width="8" height="19" fill="#a65373" rx="0" transform="matrix(-.57476 .5308 -.92737 -.8834 2801.602 2003.418)"/><rect x="183" y="40" width="7" height="9" fill="#a65373" rx="0" transform="matrix(.1411 1.01463 -1.02076 -.25298 214.49 -76.452)"/><rect x="536" y="1450" width="13" height="19" fill="#6737d5" rx="0" transform="matrix(-.83519 .3525 -.54229 -.96846 1759.224 2817.002)"/><rect x="303" y="1004" width="10" height="23" fill="#a65373" rx="0" transform="matrix(1.03606 .1397 .21402 .99405 50.879 -10.041)"/><rect x="298" y="1363" width="13" height="37" fill="#e6e639" rx="0" transform="matrix(.48627 .78683 -.87715 .63716 1344.939 213.438)"/><rect x="272" y="1821" width="10" height="27" fill="#18a8dd" rx="0" transform="matrix(-1.07182 -.23791 -.43936 -1.03051 2006.962 3886.258)"/><rect x="706" y="640" width="9" height="26" fill="#a65373" rx="0" transform="matrix(.86655 .52992 -.5003 .84805 444.316 -277.283)"/><rect x="219" y="1180" width="10" height="26" fill="#0b536d" rx="0" transform="matrix(-.64826 .5381 -.82097 -.86113 1565.952 2139.293)"/><rect x="35" y="1967" width="10" height="18" fill="#0b536d" rx="0" transform="matrix(-.94888 .03597 -.63029 -1.02999 2007.233 4019.786)"/><rect x="834" y="698" width="9" height="9" fill="#6737d5" rx="0" transform="matrix(-.01704 1 -.9991 -.0524 1612.277 -143.127)"/><rect x="1116" y="1430" width="12" height="26" fill="#0b536d" rx="0" transform="matrix(-.83087 .461 -.53855 -.90475 2716.625 2429.16)"/><rect x="79" y="1977" width="9" height="14" fill="#a65373" rx="0" transform="matrix(.09461 1.0069 -.99646 -.03516 2544.677 1959.432)"/><rect x="914" y="276" width="12" height="30" fill="#18a8dd" rx="0" transform="matrix(.80618 .81965 -.65554 .57393 449.644 -597.965)"/><rect x="280" y="36" width="13" height="14" fill="#e6e639" rx="0" transform="matrix(-.46221 .96725 -.91 -.25917 453.622 -237.988)"/><rect x="24" y="686" width="10" height="23" fill="#18a8dd" rx="0" transform="matrix(-.63162 .52468 -.85474 -.87321 792.953 1296.986)"/><rect x="799" y="1187" width="8" height="11" fill="#e6e639" rx="0" transform="matrix(.38234 1.01563 -1.08705 -.27214 2264.537 962.381)"/><rect x="282" y="1594" width="10" height="20" fill="#18a8dd" rx="0" transform="matrix(.9167 .76213 -.51524 .6625 1199.863 362.944)"/><rect x="356" y="1671" width="10" height="27" fill="#0b536d" rx="0" transform="matrix(-.1599 1.00586 -.94222 -.32682 1686.956 1996.22)"/><rect x="984" y="1249" width="9" height="25" fill="#18a8dd" rx="0" transform="matrix(.94798 .26136 -.28821 .97542 532.992 -366.272)"/><rect x="1317" y="1145" width="13" height="14" fill="#0b536d" rx="0" transform="matrix(.62829 .7233 -.77582 .69848 1403.386 -749.05)"/><rect x="505" y="1852" width="12" height="32" fill="#18a8dd" rx="0" transform="matrix(.99466 -.01755 .0008 1.00536 159.962 -54.744)"/><rect x="229" y="1379" width="12" height="23" fill="#18a8dd" rx="0" transform="matrix(-.32576 .9604 -.93538 -.31205 1386.74 1631.743)"/><rect x="471" y="736" width="13" height="13" fill="#18a8dd" rx="0" transform="matrix(.82742 .92493 -.71277 .4118 861.765 70.707)"/><rect x="611" y="1574" width="8" height="11" fill="#6737d5" rx="0" transform="matrix(1.02094 .15643 .0535 .98769 238.344 -76.76)"/><rect x="314" y="1287" width="8" height="15" fill="#0b536d" rx="0" transform="matrix(-.40097 .8253 -.93091 -.57788 2058.495 1741.079)"/><rect x="140" y="1844" width="8" height="23" fill="#e6e639" rx="0" transform="matrix(1.08036 .37552 .01102 .92945 610.352 86.904)"/><rect x="1177" y="568" width="11" height="24" fill="#0b536d" rx="0" transform="matrix(.19119 .989 -.97396 .19224 1574.702 -846.184)"/><rect x="568" y="1843" width="9" height="22" fill="#a65373" rx="0" transform="matrix(-.65594 .57602 -.72599 -.887 2150.575 3365.845)"/><rect x="713" y="669" width="9" height="14" fill="#0b536d" rx="0" transform="matrix(-.84258 .26795 -.58749 -1 1795.158 1352)"/><rect x="1302" y="1481" width="10" height="26" fill="#a65373" rx="0" transform="matrix(-.50925 .74724 -.87973 -.67282 3458.371 1659.918)"/><rect x="28" y="347" width="9" height="21" fill="#a65373" rx="0" transform="matrix(.99387 -.07044 -.01696 1.00737 24.76 -4.912)"/><rect x="1241" y="1587" width="12" height="31" fill="#a65373" rx="0" transform="matrix(-.77147 .48748 -.6596 -.87944 3715.895 2272.846)"/><rect x="859" y="1468" width="10" height="15" fill="#a65373" rx="0" transform="matrix(.9886 .39946 -.17438 .94107 296.112 -74.533)"/><rect x="650" y="51" width="9" height="16" fill="#a65373" rx="0" transform="matrix(.18123 .9113 -1.01282 .42495 597.19 -631.308)"/><rect x="446" y="1432" width="13" height="17" fill="#18a8dd" rx="0" transform="matrix(-.29119 .9573 -.94433 -.32963 1758.907 1553.815)"/><rect x="411" y="375" width="11" height="23" fill="#a65373" rx="0" transform="matrix(-.84296 .35924 -.58764 -.93586 1068.001 627.71)"/><rect x="1089" y="1673" width="11" height="17" fill="#6737d5" rx="0" transform="matrix(1.1544 .52285 .08687 .9056 379.143 -78.892)"/><rect x="1129" y="1794" width="10" height="23" fill="#18a8dd" rx="0" transform="matrix(-.17378 .80547 -1.0957 -.67587 3851.377 2480.837)"/><rect x="988" y="1973" width="10" height="28" fill="#0b536d" rx="0" transform="matrix(-.85934 .40451 -.44763 -.95298 2338.477 3744.955)"/><rect x="842" y="313" width="7" height="18" fill="#e6e639" rx="0" transform="matrix(.20712 .9761 -.9651 .27989 999.318 -742.494)"/><rect x="725" y="1936" width="8" height="15" fill="#a65373" rx="0" transform="matrix(-.27483 .81266 -1.00799 -.65808 3154.365 2852.921)"/><rect x="783" y="1670" width="11" height="30" fill="#6737d5" rx="0" transform="matrix(-.208 .98496 -.9786 -.17367 2572.271 1187.24)"/><rect x="1134" y="769" width="9" height="9" fill="#a65373" rx="0" transform="matrix(.11903 .9573 -1.08558 -.32963 2134.297 118.895)"/><rect x="93" y="1845" width="7" height="8" fill="#18a8dd" rx="0" transform="matrix(-.761 .59685 -.62803 -.8215 1754.109 3293.337)"/><rect x="1266" y="94" width="7" height="7" fill="#6737d5" rx="0" transform="matrix(.92817 .40648 -.27354 .9576 44.765 -147.866)"/><rect x="934" y="743" width="12" height="27" fill="#6737d5" rx="0" transform="matrix(.95542 .44697 -.18839 .95853 89.922 -65.112)"/><rect x="916" y="98" width="7" height="8" fill="#18a8dd" rx="0" transform="matrix(.30983 .96848 -.9437 .2777 729.146 -929.744)"/><rect x="546" y="952" width="8" height="17" fill="#e6e639" rx="0" transform="matrix(.58562 1.04746 -1.00592 -.09164 1586.36 651.123)"/><rect x="674" y="835" width="10" height="16" fill="#18a8dd" rx="0" transform="matrix(.96971 .15665 -.26118 .98904 101.585 -61.544)"/><rect x="1038" y="1351" width="10" height="10" fill="#a65373" rx="0" transform="matrix(1.06147 .22998 .24946 .99614 20.36 -12.932)"/><rect x="902" y="1955" width="10" height="17" fill="#0b536d" rx="0" transform="matrix(.2583 .84183 -1.01367 .56782 2345.04 -74.879)"/><rect x="967" y="1964" width="9" height="14" fill="#e6e639" rx="0" transform="matrix(-.82916 .57358 -.55928 -.81915 2844.966 3028.32)"/><rect x="237" y="875" width="13" height="13" fill="#6737d5" rx="0" transform="matrix(-.65257 .9514 -.81356 -.34628 970.922 916.515)"/><rect x="865" y="134" width="11" height="21" fill="#0b536d" rx="0" transform="matrix(.1973 .98721 -1.04774 -.17407 912.944 -628.844)"/><rect x="638" y="1866" width="9" height="24" fill="#6737d5" rx="0" transform="matrix(-.40323 .81977 -.90482 -.64047 2528.811 2738.34)"/><rect x="559" y="208" width="7" height="16" fill="#18a8dd" rx="0" transform="matrix(-.44368 .59978 -1.03363 -.85658 1146.582 235.616)"/><rect x="1024" y="230" width="8" height="12" fill="#18a8dd" rx="0" transform="matrix(.2755 .96651 -.96083 .25898 966.794 -782.797)"/><rect x="885" y="879" width="8" height="21" fill="#0b536d" rx="0" transform="matrix(-.12332 .9604 -1.00116 -.31205 1942.326 438.214)"/><rect x="220" y="97" width="7" height="16" fill="#0b536d" rx="0" transform="matrix(.6767 .67747 -.72453 .7524 153.202 -160.817)"/><rect x="1279" y="1931" width="13" height="26" fill="#a65373" rx="0" transform="matrix(.41129 1.00975 -.9252 .15993 2671.578 608.3)"/><rect x="1269" y="60" width="13" height="29" fill="#18a8dd" rx="0" transform="matrix(-.8624 .48666 -.49901 -.87796 2408.763 -592.42)"/><rect x="721" y="1722" width="10" height="11" fill="#6737d5" rx="0" transform="matrix(.98854 .461 -.2291 .90475 533.85 -42.127)"/><rect x="722" y="1063" width="8" height="13" fill="#0b536d" rx="0" transform="matrix(-.41197 .7524 -.95813 -.67747 2258.664 1362.794)"/><rect x="520" y="1504" width="9" height="12" fill="#6737d5" rx="0" transform="matrix(.68068 .57921 -.75437 .8272 1180.923 -116.587)"/><rect x="182" y="904" width="9" height="17" fill="#6737d5" rx="0" transform="matrix(-.95302 .5339 -.34787 -.85442 603.836 1569.684)"/><rect x="866" y="1130" width="8" height="10" fill="#e6e639" rx="0" transform="matrix(.9497 .2777 -.28894 .96848 479.78 -312.653)"/><rect x="923" y="1733" width="9" height="17" fill="#6737d5" rx="0" transform="matrix(-.9848 0 -.08481 -1.01543 1821.936 3673.409)"/><rect x="1229" y="381" width="8" height="15" fill="#a65373" rx="0" transform="matrix(.87703 .62942 -.50573 .77726 412.811 -711.06)"/><rect x="877" y="464" width="9" height="9" fill="#18a8dd" rx="0" transform="matrix(.80539 .80874 -.60726 .63186 479.517 -336.917)"/><rect x="359" y="106" width="9" height="20" fill="#6737d5" rx="0" transform="matrix(-.23044 .8336 -1.04418 -.56227 612.607 -83.586)"/><rect x="549" y="565" width="12" height="12" fill="#6737d5" rx="0" transform="matrix(-.91355 .1099 -.40674 -1.0457 1294.264 1287.428)"/><rect x="30" y="1263" width="7" height="7" fill="#0b536d" rx="0" transform="matrix(-.73597 .48547 -.73212 -.87582 1278.183 2361.218)"/><rect x="662" y="1955" width="11" height="24" fill="#18a8dd" rx="0" transform="matrix(.454 .90755 -.89016 .4232 2284.422 493.796)"/><rect x="1048" y="556" width="12" height="30" fill="#0b536d" rx="0" transform="matrix(.40295 .9761 -.90895 .27989 1266.055 -803.465)"/><rect x="532" y="667" width="12" height="32" fill="#6737d5" rx="0" transform="matrix(-.85759 .54472 -.51523 -.8388 1314.999 972.23)"/><rect x="1281" y="1119" width="13" height="24" fill="#0b536d" rx="0" transform="matrix(-1.00388 .47532 -.2158 -.89395 2710.24 1326.162)"/><rect x="474" y="1796" width="13" height="31" fill="#0b536d" rx="0" transform="matrix(.3011 1.0224 -1.00444 -.08945 2459.837 1593.205)"/><rect x="443" y="719" width="11" height="18" fill="#a65373" rx="0" transform="matrix(.86214 .75975 -.53995 .68408 512.485 -15.425)"/><rect x="1207" y="1028" width="13" height="16" fill="#6737d5" rx="0" transform="matrix(1.05567 .5922 -.23561 .8151 538.824 -378.07)"/><rect x="1298" y="1543" width="11" height="26" fill="#a65373" rx="0" transform="matrix(.50662 1.04171 -1.00428 -.09114 2766.234 738.458)"/><rect x="162" y="925" width="9" height="18" fill="#a65373" rx="0" transform="matrix(.28675 1 -1.06095 -.21256 1387.652 1001.418)"/><rect x="132" y="1365" width="8" height="23" fill="#18a8dd" rx="0" transform="matrix(.01412 1.0252 -.9774 -.14408 1330.969 1471.843)"/><rect x="1079" y="444" width="13" height="38" fill="#a65373" rx="0" transform="matrix(.9063 .31134 -.42262 .9582 297.375 -451.886)"/><rect x="1268" y="976" width="9" height="17" fill="#a65373" rx="0" transform="matrix(-.98751 -.14408 -.08607 -1.0252 2567.56 2518.12)"/><rect x="1252" y="957" width="12" height="17" fill="#18a8dd" rx="0" transform="matrix(-.13866 .96216 -.9861 -.36934 2362.19 425.353)"/><rect x="221" y="929" width="9" height="15" fill="#a65373" rx="0" transform="matrix(.15703 1.00183 -.99269 .03498 1169.648 693.592)"/><rect x="1275" y="343" width="8" height="18" fill="#18a8dd" rx="0" transform="matrix(-.69953 .78913 -.70074 -.63903 2429.202 -657.887)"/><rect x="791" y="71" width="9" height="14" fill="#e6e639" rx="0" transform="matrix(-.9205 .12678 -.39073 -1.03255 1558.239 285.79)"/><rect x="1186" y="1699" width="13" height="13" fill="#0b536d" rx="0" transform="matrix(-.47792 .77904 -.89661 -.63086 3511.24 1935.805)"/><rect x="700" y="343" width="11" height="29" fill="#6737d5" rx="0" transform="matrix(.01636 1.0189 -.98524 -.23523 1016.141 -61.54)"/><rect x="992" y="649" width="9" height="24" fill="#0b536d" rx="0" transform="matrix(-.50202 .67169 -.93124 -.74598 2312.788 571.942)"/><rect x="407" y="122" width="7" height="16" fill="#18a8dd" rx="0" transform="matrix(.94184 .473 -.34284 .88958 71.594 -129.407)"/><rect x="651" y="336" width="7" height="19" fill="#18a8dd" rx="0" transform="matrix(.7059 .77026 -.70594 .64633 429.163 -313.154)"/><rect x="647" y="1604" width="9" height="22" fill="#0b536d" rx="0" transform="matrix(.63687 .97125 -.85896 .26024 2106.524 630.413)"/><rect x="1145" y="1931" width="13" height="32" fill="#0b536d" rx="0" transform="matrix(-.1578 .99863 -.98757 -.08737 2971.054 1047.708)"/><rect x="673" y="276" width="11" height="12" fill="#e6e639" rx="0" transform="matrix(.70913 .82936 -.7092 .58073 404.145 -337.024)"/><rect x="901" y="1100" width="9" height="22" fill="#e6e639" rx="0" transform="matrix(.10509 1.00168 -1.00751 -.08764 2035.218 396.512)"/><rect x="515" y="1724" width="7" height="10" fill="#18a8dd" rx="0" transform="matrix(.71112 .66618 -.68305 .76635 1531.848 -32.863)"/><rect x="849" y="406" width="9" height="15" fill="#18a8dd" rx="0" transform="matrix(.67295 .81013 -.74545 .5886 645.786 -566.056)"/><rect x="1279" y="1248" width="12" height="12" fill="#6737d5" rx="0" transform="matrix(-.21083 .91562 -.98933 -.44658 2875.35 887.218)"/><rect x="1253" y="101" width="9" height="12" fill="#a65373" rx="0" transform="matrix(.9614 .29237 -.27568 .9563 79.895 -362.982)"/><rect x="1004" y="1296" width="9" height="23" fill="#a65373" rx="0" transform="matrix(1.16386 .61803 -.01611 .85065 418.852 -100.332)"/><rect x="805" y="1280" width="8" height="13" fill="#a65373" rx="0" transform="matrix(-.11784 .89976 -1.05136 -.45845 2580.17 1262.088)"/><rect x="910" y="285" width="13" height="28" fill="#0b536d" rx="0" transform="matrix(.99909 .01746 -.05235 1 11.552 -31.995)"/><rect x="887" y="1219" width="7" height="14" fill="#6737d5" rx="0" transform="matrix(-.97937 -.10728 .00345 -1.02068 1582.62 2778.475)"/><rect x="1129" y="435" width="13" height="31" fill="#e6e639" rx="0" transform="matrix(.78549 1.0081 -.82501 .21428 867.853 -507.608)"/><rect x="280" y="1198" width="13" height="21" fill="#18a8dd" rx="0" transform="matrix(-.02276 1.0224 -.9761 -.08945 1270.755 1089.825)"/><rect x="397" y="1339" width="13" height="38" fill="#18a8dd" rx="0" transform="matrix(-.98769 0 -.22723 -1.01247 1210.044 2796.836)"/><rect x="80" y="1178" width="13" height="21" fill="#a65373" rx="0" transform="matrix(-.37156 .74504 -.99572 -.69476 1558.256 1966.594)"/><rect x="658" y="361" width="11" height="32" fill="#0b536d" rx="0" transform="matrix(.84357 .7171 -.4899 .769 236.638 -173.118)"/><rect x="576" y="891" width="9" height="14" fill="#0b536d" rx="0" transform="matrix(.96752 .6997 -.35463 .7771 431.403 -28.538)"/><rect x="656" y="1062" width="12" height="26" fill="#18a8dd" rx="0" transform="matrix(-.54597 .87515 -.84002 -.4851 1811.039 1040.254)"/><rect x="744" y="793" width="8" height="21" fill="#e6e639" rx="0" transform="matrix(-.741 .56131 -.6405 -.86435 1712.859 1264.637)"/><rect x="1067" y="954" width="11" height="32" fill="#18a8dd" rx="0" transform="matrix(1.05908 .19375 .2873 .99677 12.336 -15.556)"/><rect x="629" y="1198" width="8" height="16" fill="#6737d5" rx="0" transform="matrix(.80669 .7892 -.56587 .68604 731.463 72.61)"/><rect x="716" y="1464" width="8" height="18" fill="#6737d5" rx="0" transform="matrix(-.07317 .87939 -1.09492 -.50771 2874.646 1714.66)"/><rect x="1034" y="638" width="9" height="16" fill="#6737d5" rx="0" transform="matrix(-.82571 .39367 -.59497 -.92742 2458.884 708.778)"/><rect x="666" y="1529" width="7" height="10" fill="#6737d5" rx="0" transform="matrix(-.72777 .43753 -.72488 -.93828 2418.602 2859.788)"/><rect x="482" y="749" width="12" height="33" fill="#e6e639" rx="0" transform="matrix(.5699 1.03018 -.89061 .14478 1035.06 291.876)"/><rect x="808" y="855" width="7" height="9" fill="#0b536d" rx="0" transform="matrix(-.88498 .19754 -.50943 -1.01626 2042.828 1790.108)"/><rect x="51" y="697" width="9" height="15" fill="#0b536d" rx="0" transform="matrix(.73135 .72033 -.682 .69561 495.378 177.372)"/><rect x="1349" y="1880" width="9" height="11" fill="#e6e639" rx="0" transform="matrix(-.56736 .67169 -.85868 -.74598 4348.908 2264.508)"/><rect x="335" y="1314" width="13" height="22" fill="#e6e639" rx="0" transform="matrix(.40605 .9148 -.91235 .4073 1341.323 490.828)"/><rect x="709" y="24" width="8" height="12" fill="#a65373" rx="0" transform="matrix(.56278 .71592 -.83402 .71592 339.65 -614.857)"/><rect x="996" y="1443" width="10" height="17" fill="#6737d5" rx="0" transform="matrix(-.6132 .74598 -.78838 -.67169 2975.177 1592.147)"/><rect x="352" y="650" width="13" height="28" fill="#0b536d" rx="0" transform="matrix(.96775 .15653 -.2784 .98829 89.267 -35.822)"/><rect x="268" y="914" width="10" height="12" fill="#18a8dd" rx="0" transform="matrix(-.9666 .3473 -.22366 -.95419 788.339 1654.905)"/><rect x="1211" y="899" width="7" height="19" fill="#a65373" rx="0" transform="matrix(-.80892 .6527 -.56805 -.77786 2773.76 608.33)"/><rect x="671" y="453" width="7" height="12" fill="#e6e639" rx="0" transform="matrix(.31504 1.00137 -.9766 .07002 992.311 -189.557)"/><rect x="408" y="605" width="9" height="17" fill="#a65373" rx="0" transform="matrix(-.02635 1.00692 -.99036 -.10583 1157.51 197.74)"/><rect x="224" y="605" width="10" height="12" fill="#0b536d" rx="0" transform="matrix(-.14155 1.00388 -.96605 -.21338 746.525 564.357)"/><rect x="287" y="97" width="13" height="20" fill="#0b536d" rx="0" transform="matrix(.75279 .81714 -.61419 .6617 117.006 -108.27)"/><rect x="1370" y="1244" width="9" height="19" fill="#18a8dd" rx="0" transform="matrix(-1.00906 -.08764 -.12273 -1.00168 3062.23 2774.03)"/><rect x="1120" y="201" width="8" height="8" fill="#e6e639" rx="0" transform="matrix(-.72465 .39388 -.74525 -.9749 2151.21 327.338)"/><rect x="617" y="537" width="9" height="19" fill="#a65373" rx="0" transform="matrix(-.27603 .93415 -.96453 -.35859 1384.609 140.19)"/><rect x="80" y="199" width="12" height="20" fill="#e6e639" rx="0" transform="matrix(.37352 .93415 -.91958 .37742 270.436 39.223)"/><rect x="68" y="215" width="9" height="10" fill="#a65373" rx="0" transform="matrix(-.16408 .9014 -1.01844 -.49965 333.476 282.648)"/><rect x="335" y="1554" width="12" height="21" fill="#e6e639" rx="0" transform="matrix(-.96208 .45427 -.31315 -.89155 968.36 2792.516)"/><rect x="390" y="1764" width="10" height="11" fill="#6737d5" rx="0" transform="matrix(.78596 .75374 -.59379 .70288 1004.632 326.516)"/><rect x="1079" y="1157" width="9" height="15" fill="#e6e639" rx="0" transform="matrix(-.82904 .50491 -.5446 -.87454 2812.706 1483.547)"/><rect x="813" y="247" width="7" height="15" fill="#a65373" rx="0" transform="matrix(.55759 .79235 -.82643 .61905 577.446 -635.821)"/><rect x="1278" y="1713" width="8" height="19" fill="#0b536d" rx="0" transform="rotate(94 1282 1722.5)"/><rect x="727" y="1018" width="9" height="13" fill="#6737d5" rx="0" transform="matrix(-.55208 .67076 -.87769 -.74496 2263.175 1348.198)"/><rect x="937" y="52" width="13" height="27" fill="#18a8dd" rx="0" transform="matrix(.65335 1.0088 -.89945 .14178 466.852 -712.194)"/><rect x="328" y="119" width="11" height="16" fill="#18a8dd" rx="0" transform="matrix(.84432 .34628 -.56805 .9514 117.57 -162.135)"/><rect x="324" y="1079" width="11" height="14" fill="#a65373" rx="0" transform="matrix(.05063 1.02849 -.98306 -.21861 1317.901 1091.587)"/><rect x="736" y="734" width="13" height="26" fill="#6737d5" rx="0" transform="matrix(.11461 .98616 -1.03424 -.17389 1673.796 105.757)"/><rect x="923" y="1734" width="9" height="19" fill="#6737d5" rx="0" transform="matrix(-.40364 .86392 -.90529 -.53984 2779.43 2063.708)"/><rect x="505" y="675" width="8" height="16" fill="#a65373" rx="0" transform="matrix(.80346 .53513 -.5829 .85638 540.918 -245.824)"/><rect x="22" y="577" width="10" height="25" fill="#6737d5" rx="0" transform="matrix(-.05712 .87796 -1.1033 -.54861 838.835 896.437)"/><rect x="17" y="129" width="9" height="24" fill="#6737d5" rx="0" transform="matrix(-.839 .47062 -.54692 -.8851 138.749 254.178)"/><rect x="194" y="356" width="9" height="11" fill="#6737d5" rx="0" transform="matrix(-.74833 .48603 -.65008 -.9141 567.565 648.656)"/><rect x="313" y="482" width="9" height="19" fill="#0b536d" rx="0" transform="matrix(.88635 .71316 -.45172 .76477 247.832 -13.744)"/><rect x="96" y="1952" width="7" height="9" fill="#e6e639" rx="0" transform="matrix(-.53275 .77904 -.85221 -.63086 1922.765 3120.215)"/><rect x="1302" y="1817" width="12" height="25" fill="#6737d5" rx="0" transform="matrix(.94107 .32963 -.30067 .9573 913.223 -560.207)"/><rect x="733" y="578" width="12" height="22" fill="#18a8dd" rx="0" transform="matrix(-.99236 -.0719 -.2817 -1.0281 1719.554 1431.934)"/><rect x="621" y="122" width="13" height="34" fill="#a65373" rx="0" transform="matrix(-.26062 .99832 -.97429 -.10493 920.583 -527.76)"/><rect x="879" y="1667" width="7" height="17" fill="#0b536d" rx="0" transform="matrix(.93872 .2777 -.3272 .96848 287.766 -83.909)"/><rect x="738" y="570" width="10" height="18" fill="#0b536d" rx="0" transform="matrix(-.76837 .37474 -.66682 -.97624 1742.24 1092.966)"/><rect x="807" y="1533" width="9" height="16" fill="#a65373" rx="0" transform="matrix(.969 .3956 -.24498 .93198 834.517 -344.74)"/><rect x="57" y="171" width="10" height="17" fill="#6737d5" rx="0" transform="matrix(-.88702 .22776 -.54856 -.98652 248.844 352.279)"/><rect x="732" y="587" width="12" height="28" fill="#0b536d" rx="0" transform="matrix(.9505 .90617 -.59816 .48182 646.666 -186.949)"/><rect x="1166" y="603" width="12" height="35" fill="#0b536d" rx="0" transform="matrix(-.6999 .55996 -.7482 -.83018 2576.78 540.772)"/><rect x="355" y="1902" width="12" height="21" fill="#0b536d" rx="0" transform="matrix(.84602 .37552 -.569 .92945 878.557 -25.876)"/><rect x="630" y="1917" width="10" height="18" fill="#0b536d" rx="0" transform="matrix(.66807 1 -.76997 .34433 1806.125 846.473)"/><rect x="297" y="808" width="12" height="35" fill="#e6e639" rx="0" transform="matrix(.99858 .1051 -.01353 1 165.872 -63.693)"/><rect x="413" y="266" width="10" height="25" fill="#18a8dd" rx="0" transform="matrix(-.66265 .89657 -.76303 -.47671 896.757 -37.205)"/><rect x="669" y="766" width="10" height="24" fill="#e6e639" rx="0" transform="matrix(-.40608 .72034 -.98215 -.72034 1905.028 983.928)"/><rect x="448" y="877" width="7" height="14" fill="#e6e639" rx="0" transform="matrix(-.6738 .63279 -.68615 -.83974 1199.031 1487.324)"/><rect x="452" y="1718" width="12" height="21" fill="#6737d5" rx="0" transform="matrix(-.8819 .39222 -.47195 -.92402 1975.385 3105.962)"/><rect x="1187" y="409" width="11" height="11" fill="#18a8dd" rx="0" transform="matrix(.9952 .26674 -.03483 .9955 7.746 -18.9)"/><rect x="745" y="548" width="11" height="30" fill="#18a8dd" rx="0" transform="matrix(.95422 .59114 -.32889 .84423 245.713 -168.828)"/><rect x="55" y="1882" width="9" height="24" fill="#18a8dd" rx="0" transform="matrix(-.52355 .6355 -.92702 -.78478 2320.743 3350.93)"/><rect x="1147" y="1546" width="8" height="11" fill="#e6e639" rx="0" transform="matrix(.80277 1.0114 -.7433 .30922 1794.253 303.939)"/><rect x="185" y="882" width="9" height="10" fill="#6737d5" rx="0" transform="matrix(.88964 .57366 -.47264 .81928 564.343 48.284)"/><rect x="1347" y="1275" width="9" height="19" fill="#0b536d" rx="0" transform="matrix(-.0524 1 -.98886 -.21256 2610.147 493.3)"/><rect x="956" y="44" width="11" height="12" fill="#e6e639" rx="0" transform="matrix(.6857 .99197 -.83713 .24733 407.48 -711.775)"/><rect x="829" y="1147" width="11" height="32" fill="#e6e639" rx="0" transform="matrix(1.11326 .41582 .09555 .93395 229.88 -92.815)"/><rect x="23" y="1088" width="10" height="15" fill="#e6e639" rx="0" transform="matrix(.69169 .8834 -.71637 .5308 774.174 496.249)"/><rect x="73" y="1739" width="8" height="21" fill="#0b536d" rx="0" transform="matrix(1.01274 .57436 -.2947 .82028 1017.43 274.236)"/><rect x="23" y="1416" width="11" height="18" fill="#e6e639" rx="0" transform="matrix(1.06332 .3102 .0488 .95469 337.98 58.22)"/><rect x="235" y="102" width="8" height="22" fill="#0b536d" rx="0" transform="matrix(.70505 .8656 -.73164 .5201 165.994 -119.058)"/><rect x="1165" y="49" width="7" height="8" fill="#a65373" rx="0" transform="matrix(.7713 .91444 -.70056 .46593 349.723 -770.452)"/><rect x="590" y="485" width="10" height="25" fill="#18a8dd" rx="0" transform="matrix(.5973 .9974 -.908 .15797 869.004 -90.92)"/><rect x="852" y="746" width="10" height="28" fill="#6737d5" rx="0" transform="matrix(-.2072 .97542 -.96968 -.26136 1694.505 243.145)"/><rect x="252" y="820" width="8" height="13" fill="#e6e639" rx="0" transform="matrix(.93013 .44513 -.33946 .91266 237.495 3.372)"/><rect x="1212" y="1849" width="7" height="20" fill="#a65373" rx="0" transform="matrix(.98044 .12254 -.17552 .99801 35.401 -17.5)"/><rect x="647" y="806" width="13" height="22" fill="#18a8dd" rx="0" transform="matrix(.20751 .97983 -.96884 .2443 1385.654 -114.756)"/><rect x="102" y="645" width="13" height="15" fill="#6737d5" rx="0" transform="matrix(-.0008 1.00536 -.99466 -.01755 699.518 566.273)"/><rect x="812" y="1594" width="9" height="12" fill="#0b536d" rx="0" transform="matrix(-.69248 .44437 -.76537 -.95295 2769.692 3027.189)"/><rect x="417" y="64" width="7" height="20" fill="#0b536d" rx="0" transform="matrix(.51504 .95728 -.85717 .34842 267.357 -272.583)"/><rect x="779" y="481" width="11" height="21" fill="#e6e639" rx="0" transform="matrix(-.57314 .57169 -.8995 -.84756 1816.147 626.338)"/><rect x="1369" y="216" width="13" height="20" fill="#6737d5" rx="0" transform="matrix(.84647 .5922 -.52356 .8151 340.612 -941.671)"/><rect x="413" y="1277" width="12" height="28" fill="#18a8dd" rx="0" transform="matrix(.57766 .87944 -.81689 .48748 1496.612 249.14)"/><rect x="638" y="1010" width="12" height="15" fill="#6737d5" rx="0" transform="matrix(-.54972 .7264 -.84578 -.70149 1916.667 1353.962)"/><rect x="939" y="1645" width="9" height="18" fill="#a65373" rx="0" transform="matrix(1.06457 .2443 .17643 .97983 159.553 -64.537)"/><rect x="576" y="480" width="10" height="12" fill="#0b536d" rx="0" transform="matrix(.69676 .97887 -.78167 .33705 646.252 -90.854)"/><rect x="92" y="1430" width="10" height="25" fill="#0b536d" rx="0" transform="matrix(.61037 1.04014 -.95075 .01816 1858.776 1343.231)"/><rect x="1278" y="420" width="9" height="25" fill="#a65373" rx="0" transform="matrix(.1945 .92742 -.9957 .39367 1439.635 -1084.645)"/><rect x="91" y="1973" width="8" height="13" fill="#18a8dd" rx="0" transform="matrix(.4701 .92275 -.88417 .39169 1835.223 1123.14)"/><rect x="697" y="1732" width="12" height="25" fill="#6737d5" rx="0" transform="matrix(.84667 .9806 -.6777 .3962 1676.183 606.038)"/><rect x="1248" y="1297" width="11" height="13" fill="#0b536d" rx="0" transform="matrix(-.32815 .7945 -.9929 -.64338 3207.749 1412.67)"/><rect x="1317" y="1547" width="12" height="21" fill="#e6e639" rx="0" transform="matrix(.95106 .14132 -.30902 1.00554 546.046 -428.883)"/><rect x="639" y="530" width="7" height="16" fill="#18a8dd" rx="0" transform="matrix(-.97789 -.23791 -.03247 -1.03051 1235.169 1466.506)"/><rect x="1373" y="253" width="9" height="19" fill="#6737d5" rx="0" transform="matrix(-.99985 0 -.28544 -1.00015 2906.498 549.084)"/><rect x="292" y="1077" width="7" height="13" fill="#0b536d" rx="0" transform="matrix(-.32493 .70948 -1.06103 -.76083 1854.171 1782.937)"/><rect x="478" y="1518" width="9" height="22" fill="#0b536d" rx="0" transform="matrix(1.08097 .59114 -.14788 .84423 598.256 73.251)"/><rect x="170" y="925" width="11" height="31" fill="#a65373" rx="0" transform="matrix(-.63984 .50191 -.83807 -.90547 1232.407 1751.037)"/><rect x="735" y="1121" width="7" height="20" fill="#a65373" rx="0" transform="matrix(-.37023 .85216 -.91425 -.5967 1975.556 1388.297)"/><rect x="501" y="544" width="9" height="12" fill="#a65373" rx="0" transform="matrix(-.62744 .80463 -.77 -.60633 1149.225 538.81)"/><rect x="501" y="787" width="9" height="21" fill="#a65373" rx="0" transform="matrix(-.07028 .98163 -1.00506 -.1908 1440.48 453.458)"/><rect x="619" y="1197" width="12" height="14" fill="#0b536d" rx="0" transform="matrix(.8531 .6887 -.53718 .73854 1101.244 -203.48)"/><rect x="1241" y="1017" width="12" height="25" fill="#e6e639" rx="0" transform="matrix(.98829 -.08824 .03625 1.00861 64.727 -96.334)"/><rect x="1382" y="301" width="8" height="23" fill="#6737d5" rx="0" transform="matrix(-.18314 .83448 -1.07011 -.58431 2130.16 -392.086)"/><rect x="765" y="702" width="13" height="16" fill="#18a8dd" rx="0" transform="matrix(-.43046 .82402 -.87726 -.6438 1643.699 767.235)"/><rect x="103" y="455" width="7" height="18" fill="#a65373" rx="0" transform="matrix(.05282 1.00046 -1.00046 -.01746 613.468 361.835)"/><rect x="1087" y="1547" width="11" height="25" fill="#6737d5" rx="0" transform="matrix(-.81301 .8272 -.63962 -.57921 2755.516 1405.524)"/><rect x="924" y="1366" width="12" height="22" fill="#0b536d" rx="0" transform="matrix(.44005 .8573 -.90205 .51512 1667.715 -145.836)"/><rect x="386" y="193" width="13" height="38" fill="#e6e639" rx="0" transform="matrix(-.05673 .94235 -1.03228 -.48015 663.98 79.07)"/><rect x="679" y="1801" width="11" height="24" fill="#e6e639" rx="0" transform="matrix(-.69403 .401 -.85868 -.94472 3281.531 3409.312)"/><rect x="804" y="318" width="8" height="14" fill="#18a8dd" rx="0" transform="matrix(.97528 .3639 -.20736 .94798 79.208 -134.65)"/><rect x="121" y="197" width="13" height="38" fill="#0b536d" rx="0" transform="matrix(-.6182 .54154 -.81773 -.90128 400.95 383.057)"/><rect x="47" y="446" width="8" height="15" fill="#a65373" rx="0" transform="matrix(.96468 .20842 -.25957 .98054 63.395 1.764)"/><rect x="35" y="495" width="10" height="18" fill="#0b536d" rx="0" transform="matrix(.771 .62171 -.62163 .79575 383.657 72.45)"/><rect x="460" y="1175" width="9" height="24" fill="#0b536d" rx="0" transform="matrix(-.94943 .17581 -.30336 -.99708 1584.873 2215.304)"/><rect x="1350" y="574" width="9" height="19" fill="#18a8dd" rx="0" transform="matrix(-.98773 .35924 -.2105 -.93586 2772.447 548.264)"/><rect x="234" y="1771" width="9" height="17" fill="#e6e639" rx="0" transform="matrix(-.86956 .50275 -.48292 -.8708 1458.742 3184.107)"/><rect x="264" y="22" width="7" height="10" fill="#0b536d" rx="0" transform="matrix(-.48465 .64633 -.96961 -.77026 441.232 -96.98)"/><rect x="1089" y="467" width="12" height="16" fill="#a65373" rx="0" transform="matrix(.23632 1.03967 -.9536 .0363 1234.02 -366.693)"/><rect x="731" y="364" width="7" height="16" fill="#0b536d" rx="0" transform="matrix(.9711 -.10614 .18203 1.00986 13.97 -55.221)"/><rect x="771" y="1336" width="7" height="8" fill="#0b536d" rx="0" transform="matrix(-.73424 .51764 -.66012 -.89658 2146.622 2348.027)"/><rect x="1218" y="1008" width="10" height="23" fill="#18a8dd" rx="0" transform="matrix(-.86224 .32877 -.53753 -.95481 2929.763 1762.728)"/><rect x="1128" y="1039" width="10" height="16" fill="#0b536d" rx="0" transform="matrix(-.67028 .41325 -.8408 -.97354 3026.14 1988.218)"/><rect x="1374" y="767" width="9" height="25" fill="#0b536d" rx="0" transform="matrix(-.92339 .10874 -.41074 -1.0346 3012.58 1831.35)"/><rect x="854" y="383" width="8" height="14" fill="#18a8dd" rx="0" transform="matrix(1.06201 .57674 -.21718 .82366 187.515 -335.889)"/><rect x="972" y="1141" width="12" height="17" fill="#6737d5" rx="0" transform="matrix(.69525 .91858 -.7791 .40898 1459.798 -116.196)"/><rect x="103" y="1878" width="10" height="10" fill="#18a8dd" rx="0" transform="matrix(-.42008 .97106 -.90137 -.29688 1915.746 2318.111)"/><rect x="30" y="1405" width="13" height="29" fill="#0b536d" rx="0" transform="matrix(-.51637 .50976 -1.03016 -.91963 1982.736 2718.168)"/><rect x="1209" y="712" width="13" height="31" fill="#e6e639" rx="0" transform="matrix(.01806 .98652 -1.0095 .22776 1899.928 -829.818)"/><rect x="1210" y="195" width="13" height="28" fill="#18a8dd" rx="0" transform="matrix(.7188 .94772 -.71998 .44193 523.003 -664.341)"/><rect x="1137" y="1110" width="10" height="10" fill="#6737d5" rx="0" transform="matrix(.65237 .85926 -.77181 .5163 1496.548 -521.802)"/><rect x="1306" y="748" width="7" height="19" fill="#e6e639" rx="0" transform="matrix(-.9018 .27602 -.47803 -.96258 2983.36 1193.84)"/><rect x="972" y="1029" width="12" height="33" fill="#6737d5" rx="0" transform="matrix(-.9933 .01752 -.17471 -1.00367 2211.197 2163.264)"/><rect x="1302" y="660" width="7" height="15" fill="#18a8dd" rx="0" transform="matrix(.61306 .77026 -.78384 .64633 1065.452 -906.717)"/><rect x="303" y="139" width="12" height="16" fill="#0b536d" rx="0" transform="matrix(-.77547 .3962 -.60467 -.9806 624.227 275.123)"/><rect x="1346" y="1343" width="7" height="13" fill="#0b536d" rx="0" transform="matrix(-.14102 .92107 -1.02584 -.39097 3322.352 587.009)"/><rect x="130" y="1502" width="8" height="12" fill="#0b536d" rx="0" transform="matrix(-.41756 1.00986 -.94634 -.10614 1408.426 1509.111)"/><rect x="863" y="1396" width="10" height="28" fill="#0b536d" rx="0" transform="matrix(-.86949 .29277 -.57166 -.95762 2898.587 2460.623)"/><rect x="1306" y="1484" width="13" height="29" fill="#18a8dd" rx="0" transform="matrix(-.92273 .15797 -.50437 -.9974 3637.108 2970.218)"/><rect x="1265" y="592" width="12" height="34" fill="#18a8dd" rx="0" transform="matrix(-.15798 .85658 -1.05681 -.59978 2291.292 274.138)"/><rect x="10" y="118" width="11" height="15" fill="#0b536d" rx="0" transform="matrix(-.34202 .82856 -.9397 -.64734 138.733 198.935)"/><rect x="1101" y="46" width="10" height="19" fill="#18a8dd" rx="0" transform="matrix(-.87559 .30977 -.5334 -.95338 2097.328 -311.534)"/><rect x="971" y="1845" width="10" height="25" fill="#a65373" rx="0" transform="matrix(1.00657 .03498 .24043 1.00183 163.08 -105.795)"/><rect x="592" y="1445" width="12" height="16" fill="#e6e639" rx="0" transform="matrix(-.97388 .24325 -.2049 -.97564 1265.065 2787.992)"/><rect x="1340" y="1037" width="12" height="30" fill="#18a8dd" rx="0" transform="matrix(.47481 .95338 -.89463 .30977 1768.513 -463.006)"/><rect x="908" y="1838" width="10" height="13" fill="#a65373" rx="0" transform="matrix(.69501 .74326 -.71964 .66923 1701.655 -84.43)"/><rect x="1163" y="1904" width="12" height="12" fill="#18a8dd" rx="0" transform="matrix(.21683 .98904 -1.04542 -.15665 3552.78 1114.272)"/><rect x="1091" y="1837" width="9" height="14" fill="#18a8dd" rx="0" transform="matrix(.93571 .39288 -.34088 .92558 596.331 -178.023)"/><rect x="971" y="144" width="13" height="26" fill="#a65373" rx="0" transform="matrix(1.0108 .3306 -.0893 .9601 26.488 -144.53)"/><rect x="1051" y="1047" width="9" height="12" fill="#e6e639" rx="0" transform="matrix(-.97985 .03524 -.31548 -1.00921 2590.779 2226.843)"/><rect x="1041" y="257" width="9" height="12" fill="#a65373" rx="0" transform="matrix(-.63058 .55127 -.80484 -.88222 1955.8 218.46)"/><rect x="350" y="506" width="8" height="10" fill="#0b536d" rx="0" transform="matrix(.9582 .40898 -.29298 .91858 174.082 -65.964)"/><rect x="385" y="1691" width="11" height="18" fill="#a65373" rx="0" transform="matrix(.52755 1.0281 -.93578 .0719 2157.352 1273.672)"/><rect x="1294" y="1093" width="11" height="16" fill="#6737d5" rx="0" transform="matrix(.73236 .71934 -.68293 .69466 1157.413 -598.6)"/><rect x="246" y="165" width="9" height="16" fill="#a65373" rx="0" transform="matrix(-.93537 .07222 -.47071 -1.03275 599.99 400.697)"/><rect x="122" y="512" width="10" height="14" fill="#6737d5" rx="0" transform="matrix(.26933 .9951 -1.04758 -.1576 799.929 490.014)"/><rect x="427" y="1197" width="10" height="29" fill="#18a8dd" rx="0" transform="matrix(-.42115 .71018 -.97199 -.73541 2044.839 1887.477)"/><rect x="360" y="483" width="12" height="14" fill="#18a8dd" rx="0" transform="matrix(-.68412 .79102 -.7297 -.61801 881.893 535.334)"/><rect x="739" y="131" width="11" height="25" fill="#e6e639" rx="0" transform="matrix(.16518 1.00107 -1.00759 -.05246 792.33 -646.327)"/><rect x="58" y="1398" width="10" height="27" fill="#a65373" rx="0" transform="matrix(.30826 .91 -.94856 .44384 1406.933 717.718)"/><rect x="1310" y="672" width="8" height="14" fill="#6737d5" rx="0" transform="matrix(-.34573 .86655 -.9544 -.5003 2550.89 -165.83)"/><rect x="128" y="205" width="13" height="27" fill="#e6e639" rx="0" transform="matrix(-1.06901 -.21428 -.36245 -1.0081 439.368 501.123)"/><rect x="741" y="1108" width="10" height="11" fill="#e6e639" rx="0" transform="matrix(.4684 .9601 -.88027 .3306 1695.822 -102.39)"/><rect x="698" y="209" width="12" height="13" fill="#6737d5" rx="0" transform="matrix(-.39584 .97496 -.9343 -.22509 1157.18 -446.952)"/><rect x="980" y="572" width="7" height="12" fill="#0b536d" rx="0" transform="matrix(-.43451 .9204 -.89302 -.4098 1967.012 -211.119)"/><rect x="1118" y="1902" width="7" height="19" fill="#e6e639" rx="0" transform="matrix(.95666 .68982 -.34914 .79355 835.27 -14.605)"/><rect x="225" y="725" width="13" height="20" fill="#e6e639" rx="0" transform="matrix(.65058 1 -.77599 .34433 679.69 330.131)"/><rect x="478" y="1300" width="9" height="9" fill="#0b536d" rx="0" transform="matrix(.01757 1.00122 -.99847 .01748 1843.573 773.327)"/><rect x="1073" y="575" width="10" height="10" fill="#0b536d" rx="0" transform="matrix(.90075 .78038 -.5256 .65482 536.899 -431.505)"/><rect x="423" y="1047" width="12" height="16" fill="#a65373" rx="0" transform="matrix(.87342 .5163 -.48326 .85926 671.88 -103.01)"/><rect x="394" y="379" width="10" height="25" fill="#18a8dd" rx="0" transform="matrix(.82261 .68962 -.53648 .7659 237.853 -84.023)"/><rect x="397" y="1894" width="8" height="21" fill="#0b536d" rx="0" transform="matrix(-.99973 -.12415 -.0874 -1.01112 1002.96 3957.915)"/><rect x="878" y="895" width="7" height="8" fill="#0b536d" rx="0" transform="matrix(.159 .99756 -1.01636 -.08728 1838.767 144.307)"/><rect x="70" y="999" width="12" height="28" fill="#18a8dd" rx="0" transform="matrix(-.87815 .29242 -.54749 -.95645 950.244 1960.987)"/><rect x="873" y="914" width="11" height="13" fill="#e6e639" rx="0" transform="matrix(.58621 .89395 -.80693 .47532 1087.799 -163.233)"/><rect x="1071" y="1507" width="13" height="14" fill="#e6e639" rx="0" transform="matrix(-.6424 .65967 -.77691 -.75887 3321.257 1838.877)"/><rect x="572" y="1109" width="7" height="10" fill="#0b536d" rx="0" transform="matrix(.71473 .81358 -.69054 .61308 890.624 74.679)"/><rect x="1217" y="1094" width="12" height="23" fill="#6737d5" rx="0" transform="matrix(.8131 .60932 -.56217 .8086 1027.291 -727.295)"/><rect x="642" y="1283" width="10" height="24" fill="#0b536d" rx="0" transform="matrix(-.51137 .88958 -.85223 -.473 2166.491 1252.533)"/><rect x="1054" y="746" width="12" height="31" fill="#e6e639" rx="0" transform="matrix(-.90393 .47532 -.40378 -.89395 2377.581 770.515)"/><rect x="1057" y="1316" width="8" height="8" fill="#6737d5" rx="0" transform="matrix(.54111 .99582 -.86928 .24829 1771.25 180.651)"/><rect x="488" y="297" width="7" height="17" fill="#6737d5" rx="0" transform="matrix(1.00183 .01746 .1051 1 0 0)"/><rect x="718" y="358" width="10" height="17" fill="#6737d5" rx="0" transform="matrix(-.8326 .35924 -.61461 -.93586 1659.02 399.203)"/><rect x="851" y="1404" width="8" height="18" fill="#0b536d" rx="0" transform="matrix(.13742 1.01872 -.98163 0 2041.783 708.192)"/><rect x="1042" y="874" width="10" height="27" fill="#6737d5" rx="0" transform="matrix(.96053 .76936 -.43492 .69273 612.322 -252.28)"/><rect x="1252" y="1246" width="11" height="32" fill="#6737d5" rx="0" transform="matrix(-.89675 .49085 -.4195 -.88552 3007.548 1563.113)"/><rect x="860" y="1132" width="10" height="10" fill="#18a8dd" rx="0" transform="matrix(1.01156 .08716 .0885 .9962 89.857 -71.063)"/><rect x="771" y="1407" width="12" height="35" fill="#e6e639" rx="0" transform="matrix(-.36725 .92252 -.92047 -.41073 2605.49 1183.59)"/><rect x="414" y="1656" width="12" height="18" fill="#18a8dd" rx="0" transform="matrix(1.1056 .56966 -.11632 .84455 716.837 101.2)"/><rect x="437" y="877" width="12" height="14" fill="#18a8dd" rx="0" transform="matrix(-.8843 .19319 -.627 -.99386 1662.619 1747.157)"/><rect x="607" y="1561" width="13" height="26" fill="#18a8dd" rx="0" transform="matrix(-1.0649 -.21428 -.3431 -1.0081 2334.849 3445.159)"/><rect x="844" y="107" width="11" height="16" fill="#a65373" rx="0" transform="matrix(.86415 .74496 -.56427 .67076 214.2 -535.578)"/><rect x="1217" y="661" width="7" height="16" fill="#18a8dd" rx="0" transform="matrix(-.87557 .44268 -.4638 -.90763 2511.064 907.443)"/><rect x="240" y="1921" width="11" height="32" fill="#e6e639" rx="0" transform="matrix(-.97686 .03555 -.15376 -1.0181 644.364 3948.044)"/><rect x="1242" y="1263" width="12" height="22" fill="#18a8dd" rx="0" transform="matrix(.17633 1 -.98457 .08749 2487.679 -194.646)"/><rect x="169" y="1243" width="12" height="34" fill="#a65373" rx="0" transform="matrix(-.92718 .5381 -.3746 -.86113 809.261 2220)"/><rect x="750" y="841" width="13" height="18" fill="#a65373" rx="0" transform="matrix(.6406 .63279 -.78924 .78143 861.758 -372.427)"/><rect x="1291" y="835" width="9" height="21" fill="#18a8dd" rx="0" transform="matrix(-.37553 .95073 -.92252 -.32736 2406.512 26.78)"/><rect x="630" y="22" width="8" height="23" fill="#6737d5" rx="0" transform="matrix(-.73382 .53024 -.71157 -.84857 1125.913 -296.386)"/><rect x="543" y="1841" width="8" height="17" fill="#0b536d" rx="0" transform="matrix(.248 1.03549 -1.00946 -.18258 2491.404 1798.51)"/><rect x="1254" y="1192" width="12" height="15" fill="#0b536d" rx="0" transform="matrix(.95846 .12375 -.27478 1.00786 398.992 -387.522)"/><rect x="613" y="249" width="12" height="34" fill="#e6e639" rx="0" transform="matrix(.59756 1.0489 -.9116 .07335 590.886 -201.654)"/><rect x="1115" y="644" width="13" height="23" fill="#18a8dd" rx="0" transform="matrix(.12293 1.00356 -1.02035 -.19507 1746.424 -103.738)"/><rect x="912" y="1913" width="10" height="15" fill="#a65373" rx="0" transform="matrix(-.88086 .60328 -.48866 -.80059 2533.4 2840.69)"/><rect x="462" y="74" width="8" height="17" fill="#e6e639" rx="0" transform="matrix(.31521 .99467 -.97222 .10454 416.936 -381.509)"/><rect x="137" y="301" width="8" height="18" fill="#0b536d" rx="0" transform="matrix(-1.00601 -.03495 -.19391 -1.00076 398.925 632.553)"/><rect x="809" y="961" width="8" height="15" fill="#e6e639" rx="0" transform="matrix(.89357 .55127 -.38396 .88222 310.85 -100.996)"/><rect x="1386" y="1711" width="11" height="31" fill="#18a8dd" rx="0" transform="matrix(-.59229 .64633 -.84134 -.77026 3964.856 2303.248)"/><rect x="382" y="461" width="9" height="16" fill="#a65373" rx="0" transform="matrix(-.82377 .42677 -.5766 -.91521 993.586 787.607)"/><rect x="970" y="1632" width="11" height="26" fill="#e6e639" rx="0" transform="matrix(-.8666 .43897 -.50124 -.90003 2841.118 2646.204)"/><rect x="872" y="398" width="9" height="21" fill="#a65373" rx="0" transform="matrix(1.06508 .49388 -.10332 .89099 118.807 -217.984)"/><rect x="1034" y="106" width="13" height="34" fill="#6737d5" rx="0" transform="matrix(-.49807 .74326 -.89696 -.66923 1699.078 -549.882)"/><rect x="572" y="1940" width="8" height="17" fill="#e6e639" rx="0" transform="matrix(-.9237 .08945 -.6216 -1.0224 2955.608 4022.102)"/><rect x="485" y="1159" width="10" height="22" fill="#6737d5" rx="0" transform="matrix(-.78597 .56616 -.60103 -.83937 1810.526 1797.036)"/><rect x="727" y="330" width="13" height="21" fill="#6737d5" rx="0" transform="matrix(-.1948 .91562 -.99715 -.44658 1249.691 -36.468)"/><rect x="392" y="1515" width="11" height="18" fill="#0b536d" rx="0" transform="matrix(-.90935 .47671 -.38746 -.89657 1476.65 2630.787)"/><rect x="202" y="1852" width="8" height="19" fill="#e6e639" rx="0" transform="matrix(.9166 .44079 -.38938 .90374 643.327 110.029)"/><rect x="417" y="700" width="10" height="29" fill="#a65373" rx="0" transform="matrix(.57414 .97044 -.8873 .24196 1048.245 139.46)"/><rect x="1137" y="669" width="12" height="31" fill="#e6e639" rx="0" transform="matrix(-.65148 .7233 -.75342 -.69848 2492.747 215.744)"/><rect x="152" y="983" width="10" height="24" fill="#a65373" rx="0" transform="matrix(.30468 1.00168 -1.02498 -.08764 1419.06 941.435)"/><rect x="513" y="1049" width="8" height="20" fill="#e6e639" rx="0" transform="matrix(.9966 .50191 -.19447 .90547 270.46 -20.855)"/><rect x="993" y="1636" width="11" height="22" fill="#a65373" rx="0" transform="matrix(1.07578 .24494 .23204 .9824 128.688 -57.42)"/><rect x="971" y="539" width="12" height="25" fill="#e6e639" rx="0" transform="matrix(.21021 1.0055 -.99452 0 1388.86 -328.195)"/><rect x="160" y="40" width="13" height="23" fill="#18a8dd" rx="0" transform="matrix(.45228 .88781 -.88588 .47206 139.793 -138.131)"/><rect x="274" y="657" width="13" height="19" fill="#e6e639" rx="0" transform="matrix(1.01865 .34202 -.12508 .9397 232.004 -55.742)"/><rect x="290" y="1104" width="9" height="16" fill="#6737d5" rx="0" transform="matrix(-.32317 .92029 -.93592 -.42914 1349.025 1370.104)"/><rect x="765" y="577" width="13" height="30" fill="#18a8dd" rx="0" transform="matrix(.47576 .95164 -.89624 .3092 1022.007 -298.296)"/><rect x="1198" y="609" width="11" height="12" fill="#a65373" rx="0" transform="matrix(.209 1.01231 -.9842 .01767 1585.38 -423.568)"/><rect x="1366" y="1698" width="13" height="32" fill="#0b536d" rx="0" transform="rotate(80 1372.5 1714)"/><rect x="18" y="1071" width="9" height="21" fill="#e6e639" rx="0" transform="matrix(-.57917 .64859 -.8266 -.80094 967.467 1938.73)"/><rect x="973" y="640" width="10" height="16" fill="#6737d5" rx="0" transform="matrix(.98577 .54497 -.31701 .83918 407.017 -462.924)"/><rect x="1151" y="1828" width="7" height="9" fill="#18a8dd" rx="0" transform="matrix(.91671 .50191 -.4046 .86933 1174.143 -441.014)"/></svg>